<?xml version="1.0" encoding="UTF-8"?>
<svg id="bottom01" xmlns="http://www.w3.org/2000/svg" viewBox="0 0 200 200">
  <defs>
    <style>
      <!-- .cls-1 {
        fill: #fa4013;
      }

      .cls-2 {
        fill: #ffcf08;
      }

      .cls-3 {
        fill: none;
        stroke: #ffcf08;
        stroke-miterlimit: 10;
        stroke-width: .5px;
      } -->
    </style>
  </defs>
  <path id="bottomstork05" class="cls-3" d="m46.87,57.86l.04,14.29s.35,12.43,6.84,11.29"/>
  <path id="bottomstork04" class="cls-3" d="m149.68,67.67l-.13-12.83s-.38-11.16-5.79-10.09"/>
  <path id="bottomstork03" class="cls-3" d="m156.82,146.86s5.17-.1,5.17-4.73c0,0,.32-5.18-4.26-5.18h-15.12s-6.02.29-6.02-5.56c0,0-.11-5.1,6.02-5.1h12.83s3.8.27,3.8-3.15c0,0,.25-3.4-3.98-3.4h-22.32"/>
  <path id="bottommstork02" class="cls-3" d="m116.21,46.52h-35.5v35.76h35.5v-35.76Z"/>
  <path id="bottpmstork01" class="cls-3" d="m50.57,101.29c-3.37-.27-10.08-.09-9.55,4.89.47,4.43,5.01,5.34,8.71,5.46,4.76.16,9.57-.17,14.33-.17h13.84c1.91,0,4.63.98,5,3.13.47,2.74-2.5,3.59-4.61,3.59h-15.56s-3.15.09-3.15,2.53,3.07,3.06,3.07,3.06c0,0,5.31.94,5.31-3.48"/>
  <path id="bottompath02" class="cls-2" d="m144.77,44.51h-3.98s-82.68,0-82.68,0c-.28-.02-.78-.03-1.41,0h-.04c-3.26.19-10.04,1.75-10.04,11.57v10.64s3.33-13.16,11.75-13.16v-.04h82.42s2.94.27,2.94-2.29c0-1.7-1.54-6.01,1.04-6.64.05,0,.05-.08,0-.08Z"/>
  <path id="bottompath03" class="cls-2" d="m159.45,146.49h-4.68s-51.55,0-51.55,0v-18.02h26.99s2.94.43,2.94-2.3c0-1.84-1.79-6.71,1.74-6.71h-4.68s-26.99,0-26.99,0v-18h41.16s2.94.5,2.94-2.3c0-1.84-1.79-6.71,1.74-6.71h-4.43s-91.72,0-91.72,0h0s-.01,0-.03,0h-.05c-.46.1-2.86.63-2.86,2.29,0,1.84,1.79,6.71-1.74,6.71h4.6s41.4,0,41.4,0v45.03h-17.22v-21.69h0c0-.17.06-2.93-2.29-2.93-1.77,0-6.37,1.62-6.68-1.46,0-.01,0,.3,0,.31l-.02,4.09h0v21.68h-25.35c-.11.02-2.93.5-2.93,2.3s1.79,6.71-1.74,6.71h4.68s112.09,0,112.09,0h0s2.94-.46,2.94-2.3-1.79-6.71,1.74-6.71Z"/>
  <path id="bottompath01" class="cls-1" d="m139.46,74.63H56.66s-2.94-.03-2.94,2.31c0,1.84,1.79,6.71-1.74,6.71h4.68s82.62-.01,82.62-.01h0s10.64.65,10.64-10.37v-10.64s-2.08,11.83-10.46,12Z"/>
</svg>