<?xml version="1.0" encoding="UTF-8"?>
<svg id="bottom92" xmlns="http://www.w3.org/2000/svg" viewBox="0 0 200 200">
  <defs>
    <style>
      .cls-1 {
        fill: #fa4013;
      }

      .cls-2 {
        fill: #ffcf08;
      }

      .cls-3 {
        fill: none;
        stroke: #ffcf08;
        stroke-miterlimit: 10;
        stroke-width: .5px;
      }
    </style>
  </defs>
  <path id="bottomstork01" class="cls-3" d="m124.76,57.09c.5-4.74,2.9-9.38,8.18-9.61,6.21-.27,11.69,3.01,11.83,9.61v10.52c0,3.05-.27,6.16,1.84,8.7,1.96,2.36,4.26,2.13,6.97,2.69,3.54.73,6.7,2.91,8.25,6.24,3.67,7.92-2.48,14.38-10.28,14.64-9.06.3-18.12.1-27.18-.02-7.4-.1-15.73-1.18-22.54,2.37-3.46,1.8-5.25,4.96-4.8,8.87"/>
  <path id="bottompath06" class="cls-2" d="m118.52,69.95c3.82,0,6.92-3.1,6.92-6.92v-8.8c-.07.5-.83,1.89-6.92,1.89-3.82,0-6.92,3.1-6.92,6.92s3.1,6.92,6.92,6.92h0Z"/>
  <path id="bottompath05" class="cls-2" d="m91.18,86.16c-3.82,0-6.92,3.1-6.92,6.92v8.8c.07-.5.83-1.89,6.92-1.89,3.82,0,6.92-3.1,6.92-6.92s-3.1-6.92-6.92-6.92h0Z"/>
  <path id="bottompath04" class="cls-1" d="m90.44,104.41c-6.54,0-6.27,7.57-6.27,7.62h0v16.84h0c0,14.01-13.87,19.91-18.15,21.52-.87.32-1.77.48-2.68.48h-5.4c2.43,0,3.05,2.28,3.21,3.58.18,1.45.58,2.86,1.33,4.06.96,1.54,2.44,1.4,4.99,1,5.1-.79,9.67-3.47,9.67-3.47,17.24-10.04,15.99-27.04,15.98-27.16h.06v-16.83h0v-4.51c0-2.33,3.37-3.14,3.37-3.14h-6.1Z"/>
  <path id="bottompath03" class="cls-2" d="m76.65,113.07h-13.14c-2.49,0-4.5,2.02-4.5,4.5s2.01,4.5,4.5,4.5h13.14c2.49,0,4.5-2.01,4.5-4.5s-2.01-4.5-4.5-4.5Z"/>
  <path id="bottompath02" class="cls-2" d="m120.36,128.16h.04s.17-15.13-13.74-15.13h-5.59s-4.33-.2-4.33-4.33l.11,4.33h.01s0,5.81,0,5.81c0,0,0,3.28,4.46,3.28h5.11s4.85-.14,4.85,6.04h0c0,14-12.51,19.9-16.79,21.5-.87.32-1.77.48-2.68.48h-5.4c2.43,0,3.05,2.28,3.21,3.58.18,1.45.58,2.86,1.33,4.06.95,1.53,2.36,2.12,4.91,1.72,5.1-.79,9.67-3.47,9.67-3.47,16.28-9.14,14.85-27.55,14.82-27.88Z"/>
  <path id="bottompath01" class="cls-2" d="m139.52,89.03h0c-42.28,0-44.31-39.43-44.31-39.43v-3.39h0c.02-.21.17-2.93-2.88-2.93s-6.11-.31-6.11-3.07v9.39h-.02s-2.03,39.42-44.31,39.43h0s-4.8-.46-4.8,3.02v11.29s.08-5.3,4.79-5.31h0s35.99-.07,48.83-26.9c12.84,26.83,48.83,26.91,48.83,26.91h0c4.71,0,4.79,5.31,4.79,5.31v-11.29c0-3.48-4.8-3.02-4.8-3.02Z"/>
</svg>