<?xml version="1.0" encoding="UTF-8"?>
<svg id="middle01" xmlns="http://www.w3.org/2000/svg" viewBox="0 0 270 450">
  <defs>
    <style>
      .cls-1 {
        fill: #fa4013;
      }

      .cls-2 {
        fill: #ffcf08;
      }

      .cls-3, .cls-4 {
        stroke-linecap: round;
      }

      .cls-3, .cls-4, .cls-5, .cls-6 {
        fill: none;
        stroke-width: .5px;
      }

      .cls-3, .cls-4, .cls-6 {
        stroke: #ffcf08;
      }

      .cls-3, .cls-5, .cls-6 {
        stroke-miterlimit: 10;
      }

      .cls-4 {
        stroke-linejoin: round;
      }

      .cls-5 {
        stroke: #fa4013;
      }
    </style>
  </defs>
  <path id="middlestork30" class="cls-6" d="m129.7,331.39c1.42-4.47-2.8-7.15-6.4-8.57-6.52-2.56-13.64-3.4-20.61-3.6-3.18-.09-6.59.4-9.73-.01-2-.26-3.57-1.42-4.54-3.13-.78-1.38-1.27-3.12-1.27-4.71,0-1.72.7-3.31,1.99-4.47,1.72-1.55,3.63-2.06,5.92-2.13,2.54-.08,5.11.03,7.63.03h7.31"/>
  <path id="_middlestork29" data-name=" middlestork29" class="cls-6" d="m151.51,359.14c-2.57-.15-3.38.08-4.11.59-.86.6-1.72,1.93-1.72,3.2v15.61s-.31,3.77,2.48,3.77,8.31,2.5,8.31,7.68-3.84,6.89-3.84,6.89"/>
  <path id="middlestork28" class="cls-6" d="m233.45,432.03s-15.14-32.08-10.52-39.37c4.23-6.67,9.79-6.22,9.79-6.22,11.04,0,10.26,13.67,10.26,13.67,0,13.98-11.26,12.73-11.26,12.73-11.88,0-11.15-12.61-11.15-12.61,0,0,1.26-11,.39-22.03l.16,1.78s-2.46-25.21,2.16-31.55c4.23-5.8,9.79-5.41,9.79-5.41,11.04,0,10.26,11.89,10.26,11.89,0,12.16-11.26,11.07-11.26,11.07-11.88,0-11.15-10.96-11.15-10.96,0,0,1.26-9.57.39-19.16l.26,4.13s-2.46-25.21,2.16-31.55c4.23-5.8,9.79-5.41,9.79-5.41,11.04,0,10.26,11.89,10.26,11.89,0,12.16-11.26,11.07-11.26,11.07-11.88,0-11.15-10.96-11.15-10.96v-46.83c0-9.63-8-7.87-8-7.87"/>
  <path id="middlestork27" class="cls-6" d="m36.56,432.03s15.14-32.08,10.52-39.37c-4.23-6.67-9.79-6.22-9.79-6.22-11.04,0-10.26,13.67-10.26,13.67,0,13.98,11.26,12.73,11.26,12.73,11.88,0,11.15-12.61,11.15-12.61,0,0-1.26-11-.39-22.03l-.16,1.78s2.46-25.21-2.16-31.55c-4.23-5.8-9.79-5.41-9.79-5.41-11.04,0-10.26,11.89-10.26,11.89,0,12.16,11.26,11.07,11.26,11.07,11.88,0,11.15-10.96,11.15-10.96,0,0-1.26-9.57-.39-19.16l-.26,4.13s2.46-25.21-2.16-31.55c-4.23-5.8-9.79-5.41-9.79-5.41-11.04,0-10.26,11.89-10.26,11.89,0,12.16,11.26,11.07,11.26,11.07,11.88,0,11.15-10.96,11.15-10.96v-46.83c0-9.63,8-7.87,8-7.87"/>
  <path id="middlestork26" class="cls-6" d="m180.6,343.22s-6.51-23.95,10.6-23.95c10.8,0,15.02-3.27,15.02-12.87,0,0-.55-11.58-12.67-11.58-10.66,0-30.72-.18-30.72-.18"/>
  <path id="middlestork25" class="cls-6" d="m97.65,269.53s.37-8.77,4.65-8.77,1.53-7.07,1.53-7.07c0,0-2.35-5.62,2.58-5.16"/>
  <path id="middlestork24" class="cls-6" d="m114.15,313.38h40.49"/>
  <path id="middlestork23" class="cls-6" d="m114.15,326.58h40.49"/>
  <path id="middlestork22" class="cls-6" d="m123.28,247.93s-3.92-10.45-4.7,2.25c-.44,7.05,4.3,12.85-1.53,18.08l-3.48,3.2s-.45,1.58-2.24,1.28"/>
  <path id="middlestork21" class="cls-6" d="m141.65,301.26s4.21,9.03,4.78-2.43c.33-6.64-4.85-11.79,1.48-17.37,0,0,3.89-3.53,6.93-3.67"/>
  <path id="middlestork20" class="cls-3" d="m226.26,85.55s-4.75-44.18,4.14-44.18c9.59,0,8.03-9.35,8.03-9.35"/>
  <path id="middlestork19" class="cls-4" d="m39.95,18.23s-10.39-1.72-8.49,9.87c.85,5.19,1.92,9.76,3.66,12.75,2.09,3.61,3.32,7.64,3.81,11.78,1.68,14.14,4.93-25.43,2.88,29.88"/>
  <path id="middlestork18" class="cls-6" d="m201.17,94.12c-1.76-.15-2.32.08-2.82.6-.59.61-1.18,1.96-1.18,3.25v15.88s-.21,3.83,1.71,3.83,5.71,2.54,5.71,7.81-5.99,7-5.99,7"/>
  <path id="middlestork17" class="cls-6" d="m144.86,94.12c1.76-.15,2.32.08,2.82.6.59.61,1.18,1.96,1.18,3.25v15.88s.21,3.83-1.71,3.83-5.71,2.54-5.71,7.81,5.99,7,5.99,7"/>
  <path id="middlestork17-2" data-name="middlestork17" class="cls-6" d="m80.69,31.69s-3.92-10.45-4.7,2.25c-.44,7.05,4.3,12.85-1.53,18.08l-3.48,3.2s-.45,1.58-2.24,1.28"/>
  <path id="middlestork16" class="cls-6" d="m99.06,85.02s4.21,9.03,4.78-2.43c.33-6.64-4.85-11.79,1.48-17.37,0,0,3.89-3.53,6.93-3.67"/>
  <path id="middlestork15" class="cls-6" d="m80.69,128.5s-3.92-10.45-4.7,2.25c-.44,7.05,4.3,12.85-1.53,18.08l-3.48,3.2s-.45,1.58-2.24,1.28"/>
  <path id="middlestork14" class="cls-6" d="m99.06,181.83s4.21,9.03,4.78-2.43c.33-6.64-4.85-11.79,1.48-17.37,0,0,3.89-3.53,6.93-3.67"/>
  <path id="middlestork13" class="cls-6" d="m71.58,91.68h40.49"/>
  <path id="middlestork12" class="cls-6" d="m72.86,115.82h40.49"/>
  <path id="middlestork11" class="cls-6" d="m72.86,103.75h40.49"/>
  <path id="middlestork10" class="cls-5" d="m200.87,139.15s.93,9.36-4.76,9.36,4.85,27.71,4.85,27.71"/>
  <path id="middlestork09" class="cls-6" d="m152.68,43.94h40.49"/>
  <path id="middlestork08" class="cls-6" d="m63.2,77.25s-2.58-.33-2.58,2.04,2.58,2.04,2.58,2.04"/>
  <path id="middlestork07" class="cls-6" d="m120.62,130.29s2.58.33,2.58-2.04-2.58-2.04-2.58-2.04"/>
  <path id="middlestork06" class="cls-6" d="m152.68,68.17h40.49"/>
  <path id="middlestork05" class="cls-6" d="m105.52,293.5s-2.58-.33-2.58,2.04,2.58,2.04,2.58,2.04"/>
  <path id="middlestork04" class="cls-6" d="m152.68,56.01h40.49"/>
  <path id="middlestork03" class="cls-6" d="m180.25,93.58s1.33-10.34-6.83-9.42c0,0-4.24-.15-4.24,4.71s-1.64,5.2-1.64,5.2c0,0-7.25,2.14-4-3.99,0,0,2.56-4.34,2.29,2.63"/>
  <path id="middlestork02" class="cls-6" d="m145.17,139.15s-.61,9.36,5.08,9.36-4.85,27.71-4.85,27.71"/>
  <path id="middlestork01" class="cls-6" d="m165.76,118.32s.97-9.16,7.1-9.16c0,0,4.65.14,4.65,4.12s-1.62,11.81,4.09,11.81,4.22-9.9,4.22-9.9c0,0-.43-3.7-4.03-2.77-3.33.86-1.47,5.59-1.47,5.59"/>
  <path id="middlepath48" class="cls-1" d="m195.96,160.78s2.81,15.62,6.34,19.33c0,0,1.36,1.75,2.98,0,2.79-3.03,5.1-2.03,5.1-2.03,0,0-13.73-14.91-15.35-21.3l.93,4Z"/>
  <path id="middlepath47" class="cls-2" d="m150.67,160.78s-2.81,15.62-6.34,19.33c0,0-2.95,1.19-3.96-.96-1.42-3.03-2.61-2.45-2.61-2.45,0,0,8.81-7.87,13.85-19.92l-.93,4h0Z"/>
  <path id="middlepath46" class="cls-1" d="m120.5,406.72c2.83,0,5.12-2.29,5.12-5.12v-6.52c-.06.37-.62,1.4-5.12,1.4-2.83,0-5.12,2.29-5.12,5.12s2.29,5.12,5.12,5.12Z"/>
  <path id="middlepath45" class="cls-2" d="m134.99,406.72c2.83,0,5.12-2.29,5.12-5.12v-6.52c-.06.37-.62,1.4-5.12,1.4-2.83,0-5.12,2.29-5.12,5.12s2.29,5.12,5.12,5.12Z"/>
  <path id="middlepath44" class="cls-2" d="m149.49,406.72c2.83,0,5.12-2.29,5.12-5.12v-6.52c-.06.37-.62,1.4-5.12,1.4-2.83,0-5.12,2.29-5.12,5.12s2.29,5.12,5.12,5.12Z"/>
  <path id="middlepath43" class="cls-1" d="m163.97,406.72c2.83,0,5.12-2.29,5.12-5.12v-6.52c-.06.37-.62,1.4-5.12,1.4-2.83,0-5.12,2.29-5.12,5.12s2.29,5.12,5.12,5.12Z"/>
  <path id="middlepath42" class="cls-2" d="m178.47,406.72c2.83,0,5.12-2.29,5.12-5.12v-6.52c-.06.37-.62,1.4-5.12,1.4-2.83,0-5.12,2.29-5.12,5.12s2.29,5.12,5.12,5.12Z"/>
  <path id="middlepath41" class="cls-2" d="m91.52,406.72c2.83,0,5.12-2.29,5.12-5.12v-6.52c-.06.37-.62,1.4-5.12,1.4-2.83,0-5.12,2.29-5.12,5.12s2.29,5.12,5.12,5.12Z"/>
  <path id="middlepath40" class="cls-2" d="m106.01,406.72c2.83,0,5.12-2.29,5.12-5.12v-6.52c-.06.37-.62,1.4-5.12,1.4-2.83,0-5.12,2.29-5.12,5.12s2.29,5.12,5.12,5.12Z"/>
  <path id="middlepath39" class="cls-2" d="m193.84,380.6h-3.84s-110.02-.01-110.02-.01h-3.86c1.95,0,1.27,4.31,1.27,4.31-.54,4.51,2.25,4.68,2.56,4.69h0s110.03,0,110.03,0h0s3.16.09,2.59-4.68c0,0-.68-4.31,1.27-4.31Z"/>
  <path id="middlepath38" class="cls-2" d="m188.01,358.56c-4.67,0-8.45-3.78-8.45-8.45v-10.76c.09.61,1.02,2.3,8.45,2.3,4.67,0,8.45,3.78,8.45,8.45s-3.78,8.45-8.45,8.45h0Z"/>
  <path id="middlepath37" class="cls-1" d="m167.06,351.81c0,7.28-9.27,7.62-9.27,7.62-11.12,0-11.24-8.92-11.24-8.92h0v-20.88h0v-5.67c0,2.6-2.94,2.89-6.11,2.89-2.86,0-2.9,2.25-2.88,2.7h0v20.96h.01c0,11.06,8.17,15.57,15.68,16.92,9.29,1.67,14.16-2.57,14.16-2.57l-.34-13.05Z"/>
  <path id="middlepath36" class="cls-2" d="m130.02,335.22v-5.67c0,2.6-2.94,2.89-6.11,2.89s-2.88,2.73-2.88,2.78h0v13.67c0,9.87-8.81,13.86-11.98,14.99-.64.23-1.77.51-2.44.51h-4c1.8,0,2.26,1.6,2.38,2.52.13,1.02.43,2.02.98,2.86.7,1.08,1.57,2.23,3.46,1.95,3.78-.56,7.86-2.35,7.86-2.35,12.66-4.52,12.74-20.48,12.74-20.48v-13.67h0Z"/>
  <path id="middlepath36-2" data-name="middlepath36" class="cls-2" d="m162.1,338.14v-36.05c0-4.27,2.99-4.84,2.99-4.84h-3.13c-9.45,0-8.86,4.84-8.86,4.84v36.05h0s.13,4.55,8.99,4.55h1.98s-1.97-.54-1.97-4.55Z"/>
  <path id="middlepath35" class="cls-2" d="m89.53,286.71c4.67,0,8.45-3.78,8.45-8.45v-10.76c-.09.61-1.02,2.3-8.45,2.3-4.67,0-8.45,3.78-8.45,8.45s3.78,8.45,8.45,8.45h0Z"/>
  <path id="middlepath34" class="cls-2" d="m115.68,338.14h0v-36.04h0s.59-4.84-8.86-4.84h-3.13s2.99.57,2.99,4.83h0v36.05h0c0,4.01-1.96,4.55-1.96,4.55h1.98c8.89,0,8.99-4.55,8.99-4.55h0Z"/>
  <path id="middlepath33" class="cls-2" d="m162.13,290.34h0v-36.04h0c0-4.27,2.99-4.84,2.99-4.84h-3.13c-9.27,0-8.87,4.79-8.86,4.84h0v36.05s.13,4.55,8.99,4.55h1.98s-1.96-.54-1.96-4.55Z"/>
  <path id="middlepath32" class="cls-2" d="m122.74,246.08s3.14,8.72,8.72,8.72,22.16,0,22.16,10.39v6.68s-1.33-2.77-3.04-4.36c0,0-6.12-6.96-15.86-6.31,0,0-11.97.93-11.97-4.82v-10.29h-.01Z"/>
  <path id="middlepath31" class="cls-1" d="m112.83,278.19h43.16v-8.62h-43.16v8.62Z"/>
  <path id="middlepath30" class="cls-2" d="m111.31,277.04s3.14,8.72,8.72,8.72,22.16,0,22.16,10.39v6.68s-1.33-2.77-3.04-4.36c0,0-6.12-6.96-15.86-6.31,0,0-11.97.93-11.97-4.82v-10.29h0Z"/>
  <path id="middlepath29" class="cls-2" d="m106.84,248.33h-3.13s2.99.57,2.99,4.84h0v36.04h-.02c0,4.01-1.96,4.55-1.96,4.55h1.98c8.86,0,8.99-4.51,8.99-4.55h.01v-36.05c.02-.15.44-4.83-8.86-4.83Z"/>
  <path id="middlepath28" class="cls-2" d="m210.32,260.06h0s-48.04-18.41-70.61-54.8h0v-5.67c0,2.6-2.94,2.89-6.11,2.89s-2.88,2.78-2.88,2.78h-.01c-22.56,36.38-70.57,54.79-70.61,54.8h-5.07c2.33,0,2.59,2.94,2.59,6.11,0,4.21,2.49,2.88,2.49,2.88h0c48.54-21.06,67.7-42.26,75.11-54.14,7.4,11.88,26.57,33.07,75.11,54.14h0s-.01,0-.01,0c0,0,2.49,1.86,2.49-2.88,0-3.17.26-6.11,2.59-6.11h-5.07Z"/>
  <path id="middlepath27" class="cls-2" d="m83.1,218.98c4.67,0,8.45-3.78,8.45-8.45v-10.76c-.09.61-1.02,2.3-8.45,2.3-4.67,0-8.45,3.78-8.45,8.45s3.78,8.45,8.45,8.45h0Z"/>
  <path id="middlepath26" class="cls-2" d="m186.9,218.98c-4.67,0-8.45-3.78-8.45-8.45v-10.76c.09.61,1.02,2.3,8.45,2.3,4.67,0,8.45,3.78,8.45,8.45s-3.78,8.45-8.45,8.45h0Z"/>
  <path id="middlepath25" class="cls-2" d="m178.43,187.11v-5.25s-.22,5.14-4.61,5.25h-77.66c-4.38-.11-4.6-5.25-4.6-5.25v5.25h0s.01,0,.01,0v8.98h-.01v5.26s.22-5.16,4.63-5.25h77.61c4.41.09,4.63,5.25,4.63,5.25v-5.25h0s0,0,0,0v-9h0Z"/>
  <path id="middlepath24" class="cls-2" d="m42.33,68.3h0v-5.67c0,2.6-2.94,2.89-6.11,2.89s-2.88,2.78-2.88,2.78h0v88.83h0v5.67c0-2.6,2.94-2.89,6.11-2.89s2.88-2.76,2.88-2.78h0v-88.83Z"/>
  <path id="middlepath23" class="cls-2" d="m224.86,68.3v88.83h0c-.01.53.11,2.66,2.89,2.66,3.17,0,6.11.29,6.11,2.89v-5.67h0v-88.7s.28-2.8-2.89-2.8-6.11-.29-6.11-2.89v5.67"/>
  <path id="middlepath22" class="cls-2" d="m179.94,68.34s2.16,10.1,5.99,10.1,15.23,0,15.23,12.03v7.74s-.92-3.2-2.09-5.05c0,0-4.21-8.06-10.9-7.31,0,0-8.23,1.07-8.23-5.59v-11.93h0Z"/>
  <path id="middlepath21" class="cls-2" d="m179.94,116.51s2.16,6.15,5.99,6.15,15.23,0,15.23,12.03v7.74s-.92-3.2-2.09-5.05c0,0-4.21-8.06-10.9-7.31,0,0-8.23,1.07-8.23-5.59v-7.97Z"/>
  <path id="middlepath20" class="cls-1" d="m179.94,90.45s2.16,10.1,5.99,10.1,15.23,0,15.23,12.03v7.74s-.92-3.2-2.09-5.05c0,0-4.21-8.06-10.9-7.31,0,0-8.23,1.07-8.23-5.59v-11.93h0Z"/>
  <path id="middlepath19" class="cls-2" d="m166.09,68.34s-2.16,10.1-5.99,10.1-15.23,0-15.23,12.03v7.74s.92-3.2,2.09-5.05c0,0,4.21-8.06,10.9-7.31,0,0,8.23,1.07,8.23-5.59v-11.93h0Z"/>
  <path id="middlepath18" class="cls-2" d="m166.09,91.41s-2.16,8.78-5.99,8.78-15.23,0-15.23,12.03v7.74s.92-3.2,2.09-5.05c0,0,4.21-8.06,10.9-7.31,0,0,8.23,1.07,8.23-5.59v-10.61h0Z"/>
  <path id="middlepath17" class="cls-1" d="m166.09,115.82s-2.16,6.15-5.99,6.15-15.23,0-15.23,12.03v7.74s.92-3.2,2.09-5.05c0,0,4.21-8.06,10.9-7.31,0,0,8.23,1.07,8.23-5.59v-7.97Z"/>
  <path id="middlepath16" class="cls-2" d="m68.74,157.61s3.14,8.72,8.72,8.72,22.16,0,22.16,10.39v6.68s-1.33-2.77-3.04-4.36c0,0-6.12-6.96-15.86-6.31,0,0-11.97.93-11.97-4.82v-10.29h0Z"/>
  <path id="middlepath15" class="cls-1" d="m80.15,126.65s3.14,8.72,8.72,8.72,22.16,0,22.16,10.39v6.68s-1.33-2.77-3.04-4.36c0,0-6.12-6.96-15.86-6.31,0,0-11.97.93-11.97-4.82v-10.29h0Z"/>
  <path id="middlepath14" class="cls-2" d="m70.24,158.76h43.16v-8.62h-43.16v8.62Z"/>
  <path id="middlepath13" class="cls-2" d="m119.55,170.61h0v-36.05h0c0-4.26,2.99-4.83,2.99-4.83h-3.13c-9.45,0-8.86,4.84-8.86,4.84h0v36.04s.1,4.55,8.99,4.55h1.98s-1.96-.54-1.96-4.55Z"/>
  <path id="middlepath12" class="cls-2" d="m73.12,133.8h0s.59-4.84-8.86-4.84h-3.13s2.99.57,2.99,4.84h0v36.04h0c0,4.01-1.96,4.55-1.96,4.55h1.98c8.89,0,8.99-4.55,8.99-4.55h0v-36.04Z"/>
  <path id="middlepath11" class="cls-2" d="m119.55,121.92h0v-36.05h0c0-4.26,2.99-4.83,2.99-4.83h-3.13c-9.45,0-8.86,4.84-8.86,4.84h0v36.04s.1,4.55,8.99,4.55h1.98s-1.96-.54-1.96-4.55Z"/>
  <path id="middlepath10" class="cls-2" d="m73.12,86.02h0s.59-4.84-8.86-4.84h-3.13s2.99.57,2.99,4.84h0v36.04h0c0,4.01-1.96,4.55-1.96,4.55h1.98c8.89,0,8.99-4.55,8.99-4.55h0v-36.04Z"/>
  <path id="middlepath09" class="cls-1" d="m168.58,64.89h8.68v-17.74h-8.68v17.74Z"/>
  <path id="middlepath08" class="cls-2" d="m200.64,74.1h0v-36.05h0c0-4.26,2.99-4.83,2.99-4.83h-3.13c-9.45,0-8.86,4.84-8.86,4.84h0v36.04s.1,4.55,8.99,4.55h1.98s-1.96-.54-1.96-4.55Z"/>
  <path id="middlepath07" class="cls-2" d="m154.21,38.21h0s.59-4.84-8.86-4.84h-3.13s2.99.57,2.99,4.84h0v36.04h0c0,4.01-1.96,4.55-1.96,4.55h1.98c8.89,0,8.99-4.55,8.99-4.55h0v-36.04Z"/>
  <path id="middlepath06" class="cls-2" d="m119.55,72.69h0v-36.05h0c0-4.26,2.99-4.83,2.99-4.83h-3.13c-9.45,0-8.86,4.84-8.86,4.84h0v36.04s.1,4.55,8.99,4.55h1.98s-1.96-.54-1.96-4.55Z"/>
  <path id="middlepath05" class="cls-2" d="m70.24,58.83h43.16v-8.62h-43.16v8.62Z"/>
  <path id="middlepath04" class="cls-1" d="m68.74,60.8s3.14,8.72,8.72,8.72,22.16,0,22.16,10.39v6.68s-1.33-2.77-3.04-4.36c0,0-6.12-6.96-15.86-6.31,0,0-11.97.93-11.97-4.82v-10.29h0Z"/>
  <path id="middlepath03" class="cls-2" d="m80.15,29.84s3.14,8.72,8.72,8.72,22.16,0,22.16,10.39v6.68s-1.33-2.77-3.04-4.36c0,0-6.12-6.96-15.86-6.31,0,0-11.97.93-11.97-4.82v-10.29h0Z"/>
  <path id="middlepath02" class="cls-2" d="m73.12,36.65h0s.59-4.84-8.86-4.84h-3.13s2.99.57,2.99,4.84h0v36.04h0c0,4.01-1.96,4.55-1.96,4.55h1.98c8.89,0,8.99-4.55,8.99-4.55h0v-36.04Z"/>
  <path id="middlepath01" class="cls-2" d="m228.36,17.98h0s-183.47,0-183.47,0h0s-7.06,0-7.06,0c0,0,3.5.49,3.5,2.29s-.68,6.7,3.55,6.71h0s183.48,0,183.48,0h0c9.37,0,10.41,7.5,10.41,7.5,0-17.33-10.41-16.49-10.41-16.49Z"/>
</svg>