<?xml version="1.0" encoding="UTF-8"?>
<svg id="middle02" xmlns="http://www.w3.org/2000/svg" viewBox="0 0 270 450">
  <defs>
    <style>
      .cls-1 {
        fill: #fa4013;
      }

      .cls-2 {
        fill: #ffcf08;
      }

      .cls-3 {
        stroke: #fa4013;
      }

      .cls-3, .cls-4 {
        fill: none;
        stroke-miterlimit: 10;
        stroke-width: .5px;
      }

      .cls-4 {
        stroke: #ffcf08;
      }
    </style>
  </defs>
  <path id="middlestork23" class="cls-4" d="m73.17,432.01s2.17-79.74-2.78-86.2c-4.53-5.92-10.49-5.52-10.49-5.52-11.82,0-10.99,12.11-10.99,12.11,0,12.39,12.05,11.28,12.05,11.28,12.72,0,11.94-11.17,11.94-11.17,0,0-1.34-9.75-.41-19.52l-.02.43s2.64-27.45-2.31-34.35c-4.53-6.31-10.49-5.89-10.49-5.89-11.82,0-10.99,12.94-10.99,12.94,0,13.24,12.05,12.05,12.05,12.05,12.72,0,11.94-11.94,11.94-11.94,0,0-1.34-10.42-.41-20.86l-.05.35s2.64-27.45-2.31-34.35c-4.53-6.31-10.49-5.89-10.49-5.89-11.82,0-10.99,12.94-10.99,12.94,0,13.24,12.05,12.05,12.05,12.05,12.72,0,11.94-11.94,11.94-11.94v-50.99c0-10.49,8.57-8.57,8.57-8.57"/>
  <path id="middlestork22" class="cls-4" d="m196.5,431.57s-1.7-74.6,3.25-81.21c4.53-6.05,10.49-5.64,10.49-5.64,11.82,0,10.99,12.39,10.99,12.39,0,12.68-12.05,11.54-12.05,11.54-12.72,0-11.94-11.43-11.94-11.43,0,0,1.34-9.98.41-19.97l.02.6s-2.64-27.45,2.31-34.35c4.53-6.31,10.49-5.89,10.49-5.89,11.82,0,10.99,12.94,10.99,12.94,0,13.24-12.05,12.05-12.05,12.05-12.72,0-11.94-11.94-11.94-11.94,0,0,1.34-10.42.41-20.86l.04.35s-2.64-27.45,2.31-34.35c4.53-6.31,10.49-5.89,10.49-5.89,11.82,0,10.99,12.94,10.99,12.94,0,13.24-12.05,12.05-12.05,12.05-12.72,0-11.94-11.94-11.94-11.94v-50.99c0-10.49-8.57-8.57-8.57-8.57"/>
  <path id="middlestork21" class="cls-4" d="m203.96,146.51v6.93"/>
  <path id="middlestork20" class="cls-4" d="m140.76,283.14h26.63"/>
  <path id="middlestork19" class="cls-4" d="m141.48,265.84h42.49"/>
  <path id="middlestork18" class="cls-4" d="m141.48,300.43h42.49"/>
  <path id="middlestork17" class="cls-4" d="m141.48,317.7h23.45"/>
  <path id="middlestork16" class="cls-4" d="m141.48,249.79h39.04"/>
  <path id="middlestork15" class="cls-4" d="m89.98,280.88v-13.3c0-2.85,3.61-3.45,3.61-3.45h2.51"/>
  <path id="middlestork14" class="cls-4" d="m89.89,259v-12.19c0-3.9,2.81-4.02,2.81-4.02h3.4"/>
  <path id="middlestork13" class="cls-4" d="m122.03,281.73c-2.6-.05-3.4.09-4.16.63-.9.64-1.81,2.07-1.81,3.44v16.78s-.32,4.05,2.61,4.05,8.73,2.69,8.73,8.26-4.45,7.36-4.45,7.36"/>
  <path id="middlestork12" class="cls-4" d="m124.25,369.91v-12.75c0-4.79-3.61-4.79-3.61-4.79h-2.51"/>
  <path id="middlestork11" class="cls-4" d="m198.46,109.05s1.17,2.84,4.45,2.84,4.46-2.7,4.46-2.7"/>
  <path id="middlestork10" class="cls-4" d="m182.11,134.47s2.84-1.17,2.84-4.45-2.7-4.46-2.7-4.46"/>
  <path id="middlestork09" class="cls-4" d="m224.24,125.57s-2.84,1.17-2.84,4.45,2.7,4.46,2.7,4.46"/>
  <path id="middlestork08" class="cls-4" d="m74.37,159.89s-2.06-.82-2.06-4.85c0,0,.05-3.92,2.17-3.92"/>
  <path id="middlestork07" class="cls-4" d="m45.87,135.35s2.06-.82,2.06-4.85c0,0-.05-3.92-2.17-3.92"/>
  <path id="middlestork06" class="cls-4" d="m75.26,126.39s1.52,2.93,0,6.64"/>
  <path id="middlestork05" class="cls-4" d="m139.36,136.43c1.09-16.31-39.81-12.96-39.81-12.96h-16.15c-6,0-5.55-5.79-5.55-5.79,0-6,5.55-5.78,5.55-5.78h19.71"/>
  <path id="middlestork04" class="cls-4" d="m197.32,18.46c1.37-.43,3.03-.68,4.43-.26,2.01.61,2.56,3.28,1.25,4.73-1.61,1.78-5.2,1.12-6.99-.04-1.19-.77-2.31-1.6-3.64-2.18-2.61-1.13-5.56-1.4-8.4-1.4,0,0-7.81-.39-7.14,5.31"/>
  <path id="middlestork03" class="cls-4" d="m94.35,45.52v33.87s-1.66,7.81-7.81,7.81"/>
  <path id="middlestork02" class="cls-3" d="m160.66,72.18s1.52,2.93,0,6.64"/>
  <path id="middlestork01" class="cls-4" d="m168.9,54.78s7.55,19.91,0,40.09"/>
  <path id="middlepath52" class="cls-2" d="m89.06,331.74c2.97,0,5.38-2.41,5.38-5.38v-6.85c-.06.39-.65,1.47-5.38,1.47-2.97,0-5.38,2.41-5.38,5.38s2.41,5.38,5.38,5.38Z"/>
  <path id="middlepath51" class="cls-2" d="m104.74,331.74c2.97,0,5.38-2.41,5.38-5.38v-6.85c-.06.39-.65,1.47-5.38,1.47-2.97,0-5.38,2.41-5.38,5.38s2.41,5.38,5.38,5.38Z"/>
  <path id="middlepath50" class="cls-1" d="m104.17,285.49c2.97,0,5.38-2.41,5.38-5.38v-6.85c-.06.39-.65,1.47-5.38,1.47-2.97,0-5.38,2.41-5.38,5.38s2.41,5.38,5.38,5.38Z"/>
  <path id="middlepath49" class="cls-2" d="m108.28,400.07c2.97,0,5.38-2.41,5.38-5.38v-6.85c-.06.39-.65,1.47-5.38,1.47-2.97,0-5.38,2.41-5.38,5.38s2.41,5.38,5.38,5.38Z"/>
  <path id="middlepath48" class="cls-2" d="m120.41,331.74c2.97,0,5.38-2.41,5.38-5.38v-6.85c-.06.39-.65,1.47-5.38,1.47-2.97,0-5.38,2.41-5.38,5.38s2.41,5.38,5.38,5.38Z"/>
  <path id="middlepath47" class="cls-2" d="m110.2,220.88c-8.83,0-16.08,6.91-16.63,15.61-.08,1.44-2.58,2.15-2.58,2.15h9.46c2.2,0,2.7-2.1,2.71-2.15.51-3.42,3.47-6.05,7.03-6.05,3.92,0,7.11,3.19,7.11,7.11s-3.19,7.11-7.11,7.11c-1.29,0-2.55-.35-3.66-1.02-.04-.03-1.34-1.1-2.7-1.1h-10.25s.86.32,1.12,1.1h0c2.48,6.3,8.66,10.58,15.51,10.58,9.19,0,16.67-7.48,16.67-16.67s-7.84-16.67-16.67-16.67Z"/>
  <path id="middlepath46" class="cls-2" d="m110.55,352.13c-2.19,0-2.69,2.08-2.71,2.15h-.01c-.51,3.42-3.47,6.05-7.03,6.05-3.92,0-7.11-3.19-7.11-7.11s3.19-7.11,7.11-7.11c1.29,0,2.55.35,3.66,1.02h0s1.33,1.11,2.71,1.11h10.25s-.87-.32-1.12-1.11h.01c-2.48-6.3-8.66-10.58-15.51-10.58-9.19,0-16.67,7.48-16.67,16.67s7.84,16.67,16.67,16.67,16.08-6.91,16.63-15.61c.08-1.44,2.59-2.15,2.59-2.15h-9.46Z"/>
  <path id="middlepath45" class="cls-1" d="m179.71,233.55h-5.03s-23.18,0-23.18,0c-2.48,0-4.5,2.02-4.5,4.5s2.02,4.5,4.5,4.5h23.19c.12,0,3.39.12,3.39-4.45,0,0-.59-4.56,1.63-4.56Z"/>
  <path id="middlepath44" class="cls-2" d="m147.6,282.88h21.69s-2.2.73-2.2,2.44c0,1.37-.98,7.86-8.3,7.86,0,0-8.75.29-8.75-7.96,0,0-.09-2.34-2.43-2.34h0Z"/>
  <path id="middlepath43" class="cls-2" d="m145.97,265.58h21.69s-2.2.73-2.2,2.44c0,1.37-.98,7.86-8.3,7.86,0,0-8.75.29-8.75-7.96,0,0-.09-2.34-2.43-2.34h-.01Z"/>
  <path id="middlepath42" class="cls-2" d="m177.81,275.89s-6.28,0-6.06-6.99c0,0-.33-3.32-2.47-3.32h17.13s-2.02.52-2.08,1.63c-.07,1.11.91,8.37-6.51,8.68h0Z"/>
  <path id="middlepath41" class="cls-2" d="m177.81,310.48s-6.28,0-6.06-6.99c0,0-.33-3.32-2.47-3.32h17.13s-2.02.52-2.08,1.63c-.07,1.11.91,8.37-6.51,8.68h0Z"/>
  <path id="middlepath40" class="cls-2" d="m158.41,327.78s-6.28,0-6.06-6.99c0,0-.33-3.32-2.47-3.32h17.13s-2.02.52-2.08,1.63c-.07,1.11.91,8.37-6.51,8.68h-.01Z"/>
  <path id="middlepath39" class="cls-2" d="m164.52,343.2s-6.28,0-6.06-6.99c0,0-.33-3.32-2.47-3.32h17.13s-2.02.52-2.08,1.63c-.07,1.11.91,8.37-6.51,8.68h0Z"/>
  <path id="middlepath38" class="cls-2" d="m89.61,255.62s3.3,8.43,9.16,8.43,23.28,0,23.28,10.91v7.02s-1.4-2.91-3.19-4.58c0,0-6.43-7.31-16.66-6.63,0,0-12.58.97-12.58-5.07v-10.09h-.01Z"/>
  <path id="middlepath37" class="cls-2" d="m124.5,366.8s-3.3,9.16-9.16,9.16-23.28,0-23.28,10.91v7.02s1.4-2.91,3.19-4.58c0,0,6.43-7.31,16.66-6.63,0,0,12.58.97,12.58-5.07v-10.81h.01Z"/>
  <path id="middlepath36" class="cls-2" d="m89.75,278.56s3.3,9.16,9.16,9.16,23.28,0,23.28,10.91v7.02s-1.4-2.91-3.19-4.58c0,0-6.43-7.31-16.66-6.63,0,0-12.58.25-12.58-5.79v-10.09h-.01Z"/>
  <path id="middlepath35" class="cls-2" d="m186.46,348.6h-60.72c2.22,0,1.63,4.56,1.63,4.56,0,4.65,3.4,4.44,3.4,4.44h50.66s3.4.21,3.4-4.44c0,0-.59-4.56,1.63-4.56Z"/>
  <path id="middlepath34" class="cls-2" d="m127.55,305.5h-5s-33.25,0-33.25,0h-5.03c2.22,0,1.63,4.56,1.63,4.56,0,4.65,3.4,4.44,3.4,4.44h33.22s3.4.21,3.4-4.44c0,0-.59-4.56,1.63-4.56Z"/>
  <path id="middlepath33" class="cls-2" d="m184.53,217.56h-35.69c-17.04,0-16.36,17.13-16.36,17.13v100.88s-.37,4.42,2.13,4.42h11.12s-4.25-.11-4.25-4.42v-100.88c0-8.37,7.36-8.13,7.36-8.13h30.66s3.4.21,3.4-4.44c0,0-.59-4.56,1.63-4.56Z"/>
  <path id="middlepath32" class="cls-2" d="m182.17,249.54h-7.9.02s-21.81.01-21.81.01h.02s0-.01,0-.01h-7.89s2.99.79,2.99,3.52h.02c-.08.32-.13.66-.13,1.02,0,2.5,2.03,4.52,4.53,4.52h22.77c2.5,0,4.53-2.03,4.53-4.52,0-.36-.05-.7-.13-1.03,0-2.72,2.99-3.51,2.99-3.51Z"/>
  <path id="middlepath31" class="cls-2" d="m170.5,419.1v-55.28h0c.01-.15.2-2.77-2.88-2.77s-6.11-.29-6.11-2.89v5.66h0v55.28s-.37,4.05,2.13,4.05h11.12s-4.25-.1-4.25-4.05Z"/>
  <path id="middlepath30" class="cls-1" d="m149.31,363.42c-3.17,0-6.11-.29-6.11-2.89v5.66h0v17.98s.12,23.08-16.25,23.08h0s-6.69,0-6.69,0c0,0-2.78-.29-2.78,2.88s-.29,6.11-2.89,6.11h5.66s6.7.01,6.7.01h0s24.91,1.15,25.25-32.08v-17.98h0c0-.06.25-2.77-2.88-2.77Z"/>
  <path id="middlepath29" class="cls-2" d="m187.32,198.69h0s-39.02,0-39.02,0v-6.6h10.74c2.64,0,2.95,1.27,2.98,1.72v-8.23c0-2.31-2.97-2.49-2.98-2.49h0s-10.74,0-10.74,0v-4.69h0s.29-2.78-2.88-2.78-6.11-.29-6.11-2.89v10.36h-9.82c2.6,0,2.89,2.94,2.89,6.11,0,2.7,2.01,2.89,2.61,2.89h0s4.32,0,4.32,0v6.6h-19.79c-.29-.46-.5-1.01-.5-1.64h.01v-12.61h0c0-2.8,2.58-3.12,2.58-3.12h-8.85c-3.13,0-2.74,3.12-2.74,3.12v12.61h0s.02.79.19,1.64h-31.18c2.6,0,2.89,2.94,2.89,6.11s2.78,2.88,2.78,2.88h0s102.51.01,102.51.01h0c8.54,0,10.44,7.8,10.44,7.8v-4.24c0-12.2-9.21-12.56-10.33-12.56Z"/>
  <path id="middlepath28" class="cls-2" d="m48.66,136.19h13.15s14.12.44,14.12-5.84c0,0-.42,14.86-12.42,14.86h-9.01s-5.21.21-5.91,4.82v-13.84h.07Z"/>
  <path id="middlepath27" class="cls-2" d="m51.49,116.02v13.65s.81-4.65,5.84-4.65h11.78s6.83-.23,6.83,4.26c0-6.19-3.24-11.47-9.19-13.62-4.83-1.75-10.54-1.83-15.25.36h-.01Z"/>
  <path id="middlepath26" class="cls-2" d="m26.66,118.05c0,4.91,3.98,8.88,8.88,8.88h11.3c-.64-.1-2.42-1.07-2.42-8.88,0-4.91-3.98-8.88-8.88-8.88s-8.88,3.98-8.88,8.88Z"/>
  <path id="middlepath25" class="cls-2" d="m26.78,143.89c0-4.91,3.98-8.88,8.88-8.88h11.3c-.64.1-2.42,1.07-2.42,8.88,0,4.91-3.98,8.88-8.88,8.88s-8.88-3.98-8.88-8.88Z"/>
  <path id="middlepath24" class="cls-2" d="m93.58,142.6c0,4.91-3.98,8.88-8.88,8.88h-11.3c.64-.1,2.42-1.07,2.42-8.88,0-4.91,3.98-8.88,8.88-8.88s8.88,3.98,8.88,8.88Z"/>
  <path id="middlepath23" class="cls-2" d="m93.46,168.43c0-4.91-3.98-8.88-8.88-8.88h-11.3c.64.1,2.42,1.07,2.42,8.88,0,4.91,3.98,8.88,8.88,8.88s8.88-3.98,8.88-8.88Z"/>
  <path id="middlepath22" class="cls-2" d="m163.06,117.05c0,4.91,3.98,8.88,8.88,8.88h11.3c-.64-.1-2.42-1.07-2.42-8.88,0-4.91-3.98-8.88-8.88-8.88s-8.88,3.98-8.88,8.88Z"/>
  <path id="middlepath21" class="cls-2" d="m163.18,142.89c0-4.91,3.98-8.88,8.88-8.88h11.3c-.64.1-2.42,1.07-2.42,8.88,0,4.91-3.98,8.88-8.88,8.88s-8.88-3.98-8.88-8.88Z"/>
  <path id="middlepath20" class="cls-2" d="m243.34,117.05c0,4.91-3.98,8.88-8.88,8.88h-11.3c.64-.1,2.42-1.07,2.42-8.88,0-4.91,3.98-8.88,8.88-8.88s8.88,3.98,8.88,8.88Z"/>
  <path id="middlepath19" class="cls-2" d="m243.23,142.89c0-4.91-3.98-8.88-8.88-8.88h-11.3c.64.1,2.42,1.07,2.42,8.88,0,4.91,3.98,8.88,8.88,8.88s8.88-3.98,8.88-8.88Z"/>
  <path id="middlepath18" class="cls-2" d="m215.88,90.1c-4.91,0-8.88,3.98-8.88,8.88v11.3c.1-.64,1.07-2.42,8.88-2.42,4.91,0,8.88-3.98,8.88-8.88s-3.98-8.88-8.88-8.88Z"/>
  <path id="middlepath17" class="cls-1" d="m212.6,172.02c-4.91,0-8.88-3.98-8.88-8.88v-11.3c.1.64,1.07,2.42,8.88,2.42,4.91,0,8.88,3.98,8.88,8.88s-3.98,8.88-8.88,8.88Z"/>
  <path id="middlepath16" class="cls-2" d="m186.73,179.5c4.91,0,8.88-3.98,8.88-8.88v-11.3c-.1.64-1.07,2.42-8.88,2.42-4.91,0-8.88,3.98-8.88,8.88s3.98,8.88,8.88,8.88Z"/>
  <path id="middlepath15" class="cls-2" d="m190.04,90.21c4.91,0,8.88,3.98,8.88,8.88v11.3c-.1-.64-1.07-2.42-8.88-2.42-4.91,0-8.88-3.98-8.88-8.88s3.98-8.88,8.88-8.88Z"/>
  <path id="middlepath14" class="cls-2" d="m203.17,114.25c-8.67,0-15.72,7.39-15.72,15.72s6.5,15.16,14.71,15.69c1.36.08,2.02,2.44,2.02,2.44v-8.93c0-2.1-2.03-2.57-2.03-2.57h0c-3.23-.48-5.7-3.27-5.7-6.63,0-3.7,3.01-6.71,6.71-6.71s6.71,3.01,6.71,6.71c0,1.23-.33,2.42-.96,3.46v.02c-.07.08-1.04,1.29-1.04,2.54v9.67s.3-.82,1.05-1.05v-.02c5.93-2.34,9.97-8.17,9.97-14.62,0-8.67-7.05-15.72-15.72-15.72Z"/>
  <path id="middlepath13" class="cls-1" d="m125.82,155.19c0-4.91-3.98-8.88-8.88-8.88h-11.3c.64.1,2.42,1.07,2.42,8.88,0,4.91,3.98,8.88,8.88,8.88s8.88-3.98,8.88-8.88Z"/>
  <path id="middlepath12" class="cls-2" d="m160,155.04h-13.81c-2.49,0-4.5,2.01-4.5,4.5s2.01,4.5,4.5,4.5h13.81c2.49,0,4.5-2.01,4.5-4.5s-2.01-4.5-4.5-4.5Z"/>
  <path id="middlepath11" class="cls-2" d="m139.57,152.53h0v-12.61h0v-5.02c0,2.46-2.94,2.4-6.11,2.4s-2.88,2.62-2.88,2.62h0v12.61h0c0,11.06-6.49,15.02-10.27,17.13-3.29,1.84-7.75,1.69-8.86,1.62,2.15.2,2.24,2.76,2.24,2.76.65,6.18,5,5.16,5,5.16,22.41-5.84,20.89-26.67,20.89-26.67Z"/>
  <path id="middlepath10" class="cls-1" d="m134.06,81.97h13.15s14.12.44,14.12-5.84c0,0-.42,14.86-12.42,14.86h-9.01s-5.21.21-5.91,4.82v-13.84h.07Z"/>
  <path id="middlepath09" class="cls-1" d="m136.88,61.81v13.65s.81-4.65,5.84-4.65h11.78s6.83-.23,6.83,4.26c0-6.19-3.24-11.47-9.19-13.62-4.83-1.75-10.54-1.83-15.25.36h0Z"/>
  <path id="middlepath08" class="cls-2" d="m134.06,43.7v12.74s.31-3.72,3.93-3.72h24.58s4.71-.61,7.31,4.1c0,0-3.1-14.4-24.83-14.4,0,0-6.92.15-10.99,1.28Z"/>
  <path id="middlepath07" class="cls-2" d="m134.06,101.39v14.49s.37-5.44,6.08-5.44,30.92-1.11,30.92-23.6c0,0-2.6,14.54-21.9,14.54h-15.1Z"/>
  <path id="middlepath06" class="cls-2" d="m103.02,60.7c-4.91,0-8.88,3.98-8.88,8.88v11.3c.1-.64,1.07-2.42,8.88-2.42,4.91,0,8.88-3.98,8.88-8.88s-3.98-8.88-8.88-8.88Z"/>
  <path id="middlepath05" class="cls-2" d="m125.18,92.97h0v-32.26h0s.08-18.28-20.58-18.28c0,0-6.43-.19-10.61,3.1h0v12.62s1.38-6.92,10.09-6.92c0,0,11.14-.35,12.09,9.48h0v32.26h0c0,11.06-6.49,15.02-10.27,17.13-3.29,1.84-7.75,1.69-8.86,1.62,2.15.2,2.24,2.76,2.24,2.76.65,6.18,5,5.16,5,5.16,22.38-5.83,20.89-26.6,20.89-26.67Z"/>
  <path id="middlepath04" class="cls-2" d="m185.65,23.75c0-3.07,2.49-5.55,5.55-5.55h7.07c-.4.06-1.51.67-1.51,5.55,0,3.07-2.49,5.55-5.55,5.55s-5.55-2.49-5.55-5.55h0Z"/>
  <path id="middlepath03" class="cls-2" d="m76.88,61.42c4.91,0,8.88-3.98,8.88-8.88v-11.3c-.1.64-1.07,2.42-8.88,2.42-4.91,0-8.88,3.98-8.88,8.88s3.98,8.88,8.88,8.88Z"/>
  <path id="middlepath02" class="cls-2" d="m185.92,60.86c-4.91,0-8.88-3.98-8.88-8.88v-11.3c.1.64,1.07,2.42,8.88,2.42,4.91,0,8.88,3.98,8.88,8.88s-3.98,8.88-8.88,8.88Z"/>
  <path id="middlepath01" class="cls-2" d="m177.15,27.43h-.01v-5.25s-.22,5.14-4.61,5.25h-82.3c-4.38-.11-4.6-5.25-4.6-5.25v5.25h0s.02,0,.02,0v8.98h-.02v5.26s.22-5.16,4.63-5.25h82.25c4.41.09,4.63,5.25,4.63,5.25v-5.25h0s.01,0,.01,0v-9Z"/>
</svg>