<svg width="222" height="146" viewBox="0 0 222 146" fill="none" xmlns="http://www.w3.org/2000/svg">
<g id="top">
<g id="Group">
<path id="Vector" d="M60.5781 42.2766V6.22656L51.5781 6.22656V42.2766H60.5781Z" fill="#FFCF08"/>
<path id="Vector_2" d="M60.5798 6.22281C60.5798 6.22281 61.1698 1.38281 51.7198 1.38281H48.5898C48.5898 1.38281 51.5798 1.95281 51.5798 6.22281H60.5798Z" fill="#FFCF08"/>
<path id="Vector_3" d="M60.5911 42.2734C60.5911 42.2734 60.4911 46.8234 51.6011 46.8234H49.6211C49.6211 46.8234 51.5811 46.2834 51.5811 42.2734H60.5811H60.5911Z" fill="#FFCF08"/>
</g>
<g id="Group_2">
<path id="Vector_4" d="M88.3398 42.2766V6.22656L79.3398 6.22656V42.2766H88.3398Z" fill="#FFCF08"/>
<path id="Vector_5" d="M79.351 6.22281C79.351 6.22281 78.761 1.38281 88.211 1.38281H91.341C91.341 1.38281 88.351 1.95281 88.351 6.22281H79.351Z" fill="#FFCF08"/>
<path id="Vector_6" d="M79.3398 42.2734C79.3398 42.2734 79.4398 46.8234 88.3298 46.8234H90.3098C90.3098 46.8234 88.3498 46.2834 88.3498 42.2734H79.3498H79.3398Z" fill="#FFCF08"/>
</g>
<g id="Group_3">
<path id="Vector_7" d="M60.5781 91.5109V55.4609H51.5781V91.5109H60.5781Z" fill="#FFCF08"/>
<path id="Vector_8" d="M60.5798 55.4572C60.5798 55.4572 61.1698 50.6172 51.7198 50.6172H48.5898C48.5898 50.6172 51.5798 51.1872 51.5798 55.4572H60.5798Z" fill="#FFCF08"/>
<path id="Vector_9" d="M60.5911 91.5078C60.5911 91.5078 60.4911 96.0578 51.6011 96.0578H49.6211C49.6211 96.0578 51.5811 95.5178 51.5811 91.5078H60.5811H60.5911Z" fill="#FFCF08"/>
</g>
<g id="Group_4">
<path id="Vector_10" d="M88.3398 91.5109V55.4609H79.3398V91.5109H88.3398Z" fill="#FFCF08"/>
<path id="Vector_11" d="M79.351 55.4572C79.351 55.4572 78.761 50.6172 88.211 50.6172H91.341C91.341 50.6172 88.351 51.1872 88.351 55.4572H79.351Z" fill="#FFCF08"/>
<path id="Vector_12" d="M79.3398 91.5078C79.3398 91.5078 79.4398 96.0578 88.3298 96.0578H90.3098C90.3098 96.0578 88.3498 95.5178 88.3498 91.5078H79.3498H79.3398Z" fill="#FFCF08"/>
</g>
<g id="Group_5">
<path id="Vector_13" d="M60.5898 140.745V104.695H51.5898V140.745H60.5898Z" fill="#FFCF08"/>
<path id="Vector_14" d="M60.5798 104.707C60.5798 104.707 61.1698 99.8672 51.7198 99.8672H48.5898C48.5898 99.8672 51.5798 100.437 51.5798 104.707H60.5798Z" fill="#FFCF08"/>
<path id="Vector_15" d="M60.5911 140.75C60.5911 140.75 60.4911 145.3 51.6011 145.3H49.6211C49.6211 145.3 51.5811 144.76 51.5811 140.75H60.5811H60.5911Z" fill="#FFCF08"/>
</g>
<g id="Group_6">
<path id="Vector_16" d="M88.3398 140.761V104.711H79.3398V140.761H88.3398Z" fill="#FFCF08"/>
<path id="Vector_17" d="M79.351 104.707C79.351 104.707 78.761 99.8672 88.211 99.8672H91.341C91.341 99.8672 88.351 100.437 88.351 104.707H79.351Z" fill="#FFCF08"/>
<path id="Vector_18" d="M79.3398 140.75C79.3398 140.75 79.4398 145.3 88.3298 145.3H90.3098C90.3098 145.3 88.3498 144.76 88.3498 140.75H79.3498H79.3398Z" fill="#FFCF08"/>
</g>
<g id="Group_7">
<path id="Vector_19" d="M144.301 140.761V104.711H135.301V140.761H144.301Z" fill="#FFCF08"/>
<path id="Vector_20" d="M144.291 104.707C144.291 104.707 144.881 99.8672 135.431 99.8672H132.301C132.301 99.8672 135.291 100.437 135.291 104.707H144.291Z" fill="#FFCF08"/>
<path id="Vector_21" d="M144.302 140.75C144.302 140.75 144.202 145.3 135.312 145.3H133.332C133.332 145.3 135.292 144.76 135.292 140.75H144.292H144.302Z" fill="#FFCF08"/>
</g>
<g id="Group_8">
<path id="Vector_22" d="M172.062 140.745V104.695H163.062V140.745H172.062Z" fill="#FFCF08"/>
<path id="Vector_23" d="M163.062 104.707C163.062 104.707 162.472 99.8672 171.922 99.8672H175.052C175.052 99.8672 172.062 100.437 172.062 104.707H163.062Z" fill="#FFCF08"/>
<path id="Vector_24" d="M163.062 140.75C163.062 140.75 163.163 145.3 172.053 145.3H174.033C174.033 145.3 172.073 144.76 172.073 140.75H163.073H163.062Z" fill="#FFCF08"/>
</g>
<g id="Group_9">
<path id="Vector_25" d="M144.301 91.6672V55.6172H135.301V91.6672H144.301Z" fill="#FFCF08"/>
<path id="Vector_26" d="M144.291 55.6134C144.291 55.6134 144.881 50.7734 135.431 50.7734H132.301C132.301 50.7734 135.291 51.3434 135.291 55.6134H144.291Z" fill="#FFCF08"/>
<path id="Vector_27" d="M144.302 91.6562C144.302 91.6562 144.202 96.2062 135.312 96.2062H133.332C133.332 96.2062 135.292 95.6663 135.292 91.6562H144.292H144.302Z" fill="#FFCF08"/>
</g>
<g id="Group_10">
<path id="Vector_28" d="M172.062 91.6516V55.6016H163.062V91.6516H172.062Z" fill="#FFCF08"/>
<path id="Vector_29" d="M163.062 55.6134C163.062 55.6134 162.472 50.7734 171.922 50.7734H175.052C175.052 50.7734 172.062 51.3434 172.062 55.6134H163.062Z" fill="#FFCF08"/>
<path id="Vector_30" d="M163.062 91.6562C163.062 91.6562 163.163 96.2062 172.053 96.2062H174.033C174.033 96.2062 172.073 95.6663 172.073 91.6562H163.073H163.062Z" fill="#FFCF08"/>
</g>
<g id="Group_11">
<path id="Vector_31" d="M144.301 42.425V6.375L135.301 6.375V42.425H144.301Z" fill="#FFCF08"/>
<path id="Vector_32" d="M144.291 6.36344C144.291 6.36344 144.881 1.52344 135.431 1.52344H132.301C132.301 1.52344 135.291 2.09344 135.291 6.36344H144.291Z" fill="#FFCF08"/>
<path id="Vector_33" d="M144.302 42.4141C144.302 42.4141 144.202 46.9641 135.312 46.9641H133.332C133.332 46.9641 135.292 46.4241 135.292 42.4141H144.292H144.302Z" fill="#FFCF08"/>
</g>
<g id="Group_12">
<path id="Vector_34" d="M172.051 42.4172V6.36719L163.051 6.36719V42.4172H172.051Z" fill="#FFCF08"/>
<path id="Vector_35" d="M163.062 6.36344C163.062 6.36344 162.472 1.52344 171.922 1.52344H175.052C175.052 1.52344 172.062 2.09344 172.062 6.36344H163.062Z" fill="#FFCF08"/>
<path id="Vector_36" d="M163.062 42.4141C163.062 42.4141 163.163 46.9641 172.053 46.9641H174.033C174.033 46.9641 172.073 46.4241 172.073 42.4141H163.073H163.062Z" fill="#FFCF08"/>
</g>
<path class="stroke-h" id="Vector_37" d="M60.5898 14.3672H79.3398" stroke="#FFCF08" stroke-width="0.5" stroke-miterlimit="10"/>
<path class="stroke-h" id="Vector_38" d="M60.5898 29.6875H79.3398" stroke="#FFCF08" stroke-width="0.5" stroke-miterlimit="10"/>
<path class="stroke-h" id="Vector_39" d="M60.5898 63.6094H79.3398" stroke="#FFCF08" stroke-width="0.5" stroke-miterlimit="10"/>
<path class="stroke-h" id="Vector_40" d="M60.5898 78.9297H79.3398" stroke="#FFCF08" stroke-width="0.5" stroke-miterlimit="10"/>
<path class="stroke-h" id="Vector_41" d="M60.5898 112.852H79.3398" stroke="#FFCF08" stroke-width="0.5" stroke-miterlimit="10"/>
<path class="stroke-h" id="Vector_42" d="M60.5898 128.172H79.3398" stroke="#FFCF08" stroke-width="0.5" stroke-miterlimit="10"/>
<path class="stroke-h" id="Vector_43" d="M144.301 15.1875H163.061" stroke="#FFCF08" stroke-width="0.5" stroke-miterlimit="10"/>
<path class="stroke-h" id="Vector_44" d="M144.301 29.6875H163.061" stroke="#FFCF08" stroke-width="0.5" stroke-miterlimit="10"/>
<path class="stroke-h" id="Vector_45" d="M144.301 63.6094H163.061" stroke="#FFCF08" stroke-width="0.5" stroke-miterlimit="10"/>
<path class="stroke-h" id="Vector_46" d="M144.301 78.9297H163.061" stroke="#FFCF08" stroke-width="0.5" stroke-miterlimit="10"/>
<path class="stroke-h" id="Vector_47" d="M144.301 112.852H163.061" stroke="#FFCF08" stroke-width="0.5" stroke-miterlimit="10"/>
<path class="stroke-h" id="Vector_48" d="M144.301 128.172H163.061" stroke="#FFCF08" stroke-width="0.5" stroke-miterlimit="10"/>
<g id="Group_13">
<path id="Vector_49" d="M111.83 12.9141C107.1 12.9141 103.27 16.7441 103.27 21.4741V32.3641C103.36 31.7441 104.3 30.0341 111.83 30.0341C116.56 30.0341 120.39 26.2041 120.39 21.4741C120.39 16.7441 116.56 12.9141 111.83 12.9141Z" fill="#FFCF08"/>
<path id="Vector_50" d="M103.271 32.5716V32.3516C103.251 32.4916 103.271 32.5716 103.271 32.5716Z" fill="#FFCF08"/>
</g>
<g id="Group_14">
<path id="Vector_51" d="M111.822 81.7234C116.552 81.7234 120.382 77.8934 120.382 73.1634V62.2734C120.292 62.8934 119.352 64.6034 111.822 64.6034C107.092 64.6034 103.262 68.4334 103.262 73.1634C103.262 77.8934 107.092 81.7234 111.822 81.7234Z" fill="#FA4013"/>
<path id="Vector_52" d="M120.371 62.0547V62.2747C120.391 62.1347 120.371 62.0547 120.371 62.0547Z" fill="#FA4013"/>
</g>
<g id="Group_15">
<path id="Vector_53" d="M47.3489 106.921C47.3489 104.561 45.4289 102.641 43.0689 102.641H37.6289C37.9389 102.691 38.7989 103.151 38.7989 106.921C38.7989 109.281 40.7189 111.201 43.0789 111.201C45.4389 111.201 47.3589 109.281 47.3589 106.921H47.3489Z" fill="#FFCF08"/>
<path id="Vector_54" d="M37.5195 102.637H37.6295C37.5595 102.627 37.5195 102.637 37.5195 102.637Z" fill="#FFCF08"/>
</g>
<g id="Group_16">
<path id="Vector_55" d="M111.81 111.203C116.54 111.203 120.37 115.033 120.37 119.763V130.653C120.28 130.033 119.34 128.323 111.81 128.323C107.08 128.323 103.25 124.493 103.25 119.763C103.25 115.033 107.08 111.203 111.81 111.203Z" fill="#FFCF08"/>
<path id="Vector_56" d="M120.371 130.876V130.656C120.391 130.796 120.371 130.876 120.371 130.876Z" fill="#FFCF08"/>
</g>
<g id="Group_17">
<path id="Vector_57" d="M41.7995 73.2891C44.1595 73.2891 46.0795 75.2091 46.0795 77.5691V83.0191C46.0295 82.7091 45.5695 81.8491 41.7995 81.8491C39.4395 81.8491 37.5195 79.9291 37.5195 77.5691C37.5195 75.2091 39.4395 73.2891 41.7995 73.2891Z" fill="#FA4013"/>
<path id="Vector_58" d="M46.0781 83.1256V83.0156C46.0881 83.0856 46.0781 83.1256 46.0781 83.1256Z" fill="#FA4013"/>
</g>
<path id="Vector_59" d="M103.46 31.25C103.46 31.25 101.4 39.65 110.57 39.65H152.75C153.65 39.65 154.55 39.79 155.39 40.12C156.87 40.7 158.64 42 158.64 44.86C158.64 44.86 158.9 50.05 152.45 50.05H110.69C110.69 50.05 107.36 50.08 107.36 53.32C107.36 59.82 120.19 54.66 120.19 63.17" stroke="#FA4013" stroke-width="0.5" stroke-miterlimit="10"/>
<path id="Vector_60" d="M135.621 95.98H106.851C106.851 95.98 101.851 95.64 101.851 101.74C101.851 101.74 102.271 107.83 96.9011 107.83C91.5311 107.83 91.7911 113.71 91.7911 113.71C91.7911 113.71 91.5311 119.54 96.8611 119.54H127.391C127.391 119.54 133.551 119.34 133.551 126.63C133.551 126.63 134.031 133.13 127.901 133.13H122.511C122.511 133.13 118.251 133.16 118.251 136.55C118.251 136.55 117.851 140.89 122.441 140.89C127.031 140.89 133.601 141.72 133.601 145.31" stroke="#FFCF08" stroke-width="0.5" stroke-miterlimit="10"/>
<path id="Vector_61" d="M185.84 7.5625H181.57C179.085 7.5625 177.07 9.57722 177.07 12.0625C177.07 14.5478 179.085 16.5625 181.57 16.5625H185.84C188.326 16.5625 190.34 14.5478 190.34 12.0625C190.34 9.57722 188.326 7.5625 185.84 7.5625Z" fill="#FFCF08"/>
<path id="Vector_62" d="M184.372 63.0703H179.672C177.187 63.0703 175.172 65.085 175.172 67.5703C175.172 70.0556 177.187 72.0703 179.672 72.0703H184.372C186.857 72.0703 188.872 70.0556 188.872 67.5703C188.872 65.085 186.857 63.0703 184.372 63.0703Z" fill="#FFCF08"/>
<path id="Vector_63" d="M179.599 72.0781H209.469V63.0781H179.599V72.0781Z" fill="#FFCF08"/>
<path id="Vector_64" d="M179.599 85.2031H209.469V76.2031H179.599V85.2031Z" fill="#FFCF08"/>
<path id="Vector_65" d="M184.941 103.992H204.461V94.9922H184.941V103.992Z" fill="#FFCF08"/>
<path id="Vector_66" d="M50.4989 46.6638C50.4989 46.6638 47.8789 46.3338 47.8789 48.7338C47.8789 51.1338 50.4889 50.7938 50.4889 50.7938" stroke="#FFCF08" stroke-width="0.5" stroke-miterlimit="10"/>
<path id="Vector_67" d="M89.6602 95.8982C89.6602 95.8982 92.2802 95.5682 92.2802 97.9682C92.2802 100.368 89.6702 100.028 89.6702 100.028" stroke="#FFCF08" stroke-width="0.5" stroke-miterlimit="10"/>
<path id="Vector_68" d="M173.109 95.8982C173.109 95.8982 175.729 95.5682 175.729 97.9682C175.729 100.368 173.119 100.028 173.119 100.028" stroke="#FFCF08" stroke-width="0.5" stroke-miterlimit="10"/>
<path id="Vector_69" d="M134.531 46.6616C134.531 46.6616 131.221 46.3516 131.211 48.7416C131.211 51.0916 132.511 51.0816 133.881 51.0116" stroke="#FFCF08" stroke-width="0.5" stroke-miterlimit="10"/>
<path id="Vector_70" d="M200.328 7.07812H191.328V19.7081H200.328V7.07812Z" fill="#FFCF08"/>
<path id="Vector_71" d="M200.329 19.7109C200.329 19.7109 201.319 34.0409 187.159 41.2509C187.159 41.2509 183.739 43.2609 179.909 43.8509C177.999 44.1509 176.799 43.0709 176.089 41.9209C175.529 41.0209 175.229 39.9609 175.099 38.8809C174.979 37.9009 174.519 36.2009 172.699 36.2009H176.749C177.429 36.2009 178.109 36.0809 178.759 35.8409C181.969 34.6309 191.349 30.2109 191.349 19.7109" fill="#FFCF08"/>
<path id="Vector_72" d="M191.328 7.07937C191.328 7.07937 191.328 1.35938 197.308 1.35938H203.708C203.708 1.35938 200.328 1.94938 200.328 3.69938V7.07937H191.328Z" fill="#FFCF08"/>
<path id="Union" fill-rule="evenodd" clip-rule="evenodd" d="M201.4 12.3756V8.01562H201.39L201.315 4.97777C201.46 7.87254 204.56 8.01562 204.56 8.01562H210.78C221.188 8.01562 221.001 19.3073 221 19.3555C221 19.3556 221 19.3556 221 19.3556H221C221 19.4092 220.995 33.36 208.05 40.8955C208.05 40.8955 204.63 42.9055 200.8 43.4955C198.89 43.7955 197.69 42.7155 196.98 41.5655C196.42 40.6655 196.12 39.6055 195.99 38.5255C195.87 37.5455 195.41 35.8455 193.59 35.8455H197.64C198.32 35.8455 199 35.7255 199.65 35.4855C202.86 34.2755 212.24 29.8555 212.24 19.3556H212.21C212.21 15.5156 208.57 15.7156 208.57 15.7156H204.74C201.4 15.7156 201.4 12.3756 201.4 12.3756ZM201.31 4.76562L201.315 4.97777C201.312 4.90864 201.31 4.83793 201.31 4.76562Z" fill="#FA4013"/>
<path id="Union_2" fill-rule="evenodd" clip-rule="evenodd" d="M20.6693 86.1803V81.8203H20.6493L20.5746 78.7825C20.7192 81.6772 23.8193 81.8203 23.8193 81.8203H30.0393C40.4467 81.8203 40.2602 93.1111 40.2593 93.1602H40.2694C40.2694 93.1602 40.2894 107.15 27.3194 114.7C27.3194 114.7 23.8994 116.71 20.0694 117.3C18.1594 117.6 16.9594 116.52 16.2494 115.37C15.6894 114.47 15.3894 113.41 15.2594 112.33C15.1394 111.35 14.6794 109.65 12.8594 109.65H16.9094C17.5894 109.65 18.2694 109.53 18.9194 109.29C22.1294 108.08 31.2893 103.66 31.2894 93.1603H31.2593C31.2593 89.3203 27.8393 89.5203 27.8393 89.5203H24.0093C20.6693 89.5203 20.6693 86.1803 20.6693 86.1803ZM20.5693 78.5703L20.5746 78.7825C20.5711 78.7133 20.5693 78.6426 20.5693 78.5703Z" fill="#FFCF08"/>
<path id="Vector_73" d="M174.3 36.4506C171.5 36.4806 168.22 35.1806 168.22 47.0606C168.22 47.0606 167.76 54.5906 188.14 54.5906H213.34C213.34 54.5906 217.99 54.3806 217.99 59.2406C217.99 59.2406 218.04 63.3806 213.85 63.3806H212.22" stroke="#FFCF08" stroke-width="0.5" stroke-miterlimit="10"/>
<path id="Vector_74" d="M209.391 72.0703C209.391 72.0703 212.151 72.0703 212.831 69.6603C212.991 69.1103 212.981 68.5203 212.881 67.9503C212.641 66.6003 212.281 63.0703 215.171 63.0703H209.391V72.0703Z" fill="#FFCF08"/>
<path id="Vector_75" d="M206.711 95.3822C206.711 95.3822 214.391 94.5422 214.391 89.8022C214.391 85.0622 209.481 84.7422 209.481 84.7422" stroke="#FFCF08" stroke-width="0.5" stroke-miterlimit="10"/>
<path id="Vector_76" d="M209.478 76.3537C209.478 76.3537 214.388 76.5737 214.388 81.2537V88.6537C214.388 88.6537 213.478 85.0637 208.828 85.0637L209.488 76.3438L209.478 76.3537Z" fill="#FFCF08"/>
<path id="Vector_77" d="M180.039 84.75C180.039 84.75 175.129 85.07 175.129 89.81C175.129 94.55 182.699 95.39 182.699 95.39" stroke="#FFCF08" stroke-width="0.5" stroke-miterlimit="10"/>
<path id="Vector_78" d="M180.039 76.3537C180.039 76.3537 175.129 76.5737 175.129 81.2537V88.6537C175.129 88.6537 176.039 85.0637 180.689 85.0637L180.029 76.3438L180.039 76.3537Z" fill="#FFCF08"/>
<path id="Vector_79" d="M204.461 104C204.461 104 206.681 104 206.681 101.7C206.681 99.86 205.321 95 208.001 95H204.461V104Z" fill="#FFCF08"/>
<path id="Vector_80" d="M184.938 104C184.938 104 182.718 104.09 182.718 101.7C182.718 99.86 184.078 95 181.398 95H184.938V104Z" fill="#FFCF08"/>
<path id="Vector_81" d="M180.329 131.453C180.329 131.453 178.109 131.543 178.109 129.153C178.109 127.313 179.469 122.453 176.789 122.453H180.329V131.453Z" fill="#FFCF08"/>
<path id="Vector_82" d="M180.32 131.453H209.07V122.453H180.32V131.453Z" fill="#FFCF08"/>
<path id="Vector_83" d="M209.078 131.453C209.078 131.453 211.298 131.453 211.298 129.153C211.298 127.313 209.938 122.453 212.618 122.453H209.078V131.453Z" fill="#FFCF08"/>
<path id="Vector_84" d="M210.328 107.529C210.328 107.529 217.998 106.219 217.998 115.099C217.998 115.099 217.898 122.759 210.338 122.759" stroke="#FFCF08" stroke-width="0.5" stroke-miterlimit="10"/>
<path id="Vector_85" d="M178.01 107.561C178.01 107.561 170.34 107.041 170.34 115.231C170.34 115.231 170.44 122.891 178 122.891" stroke="#FFCF08" stroke-width="0.5" stroke-miterlimit="10"/>
<path id="Union_3" fill-rule="evenodd" clip-rule="evenodd" d="M8.96156 17.8563C8.96156 19.6963 11.2616 20.1562 11.2616 20.1562V11.1562H7.60156C9.74431 11.1562 9.37969 14.0855 9.10944 16.2567C9.03158 16.8822 8.96156 17.4447 8.96156 17.8563ZM40.0116 20.1562C40.0116 20.1562 42.3116 20.0263 42.3116 17.8563C42.3116 17.4448 42.2416 16.8822 42.1637 16.2568L42.1637 16.2567C41.8935 14.0855 41.5289 11.1562 43.6716 11.1562H40.0116V11.168H11.2616V20.168H40.0116V20.1562Z" fill="#FFCF08"/>
<path id="Union_4" fill-rule="evenodd" clip-rule="evenodd" d="M8.96156 33.1844C8.96156 35.0244 11.2616 35.4844 11.2616 35.4844V26.4844H7.60156C9.74431 26.4844 9.37969 29.4137 9.10944 31.5849C9.03158 32.2103 8.96156 32.7729 8.96156 33.1844ZM11.2616 35.4844H40.0116C40.0116 35.4844 42.3116 35.3844 42.3116 33.1844C42.3116 32.7729 42.2416 32.2104 42.1637 31.5849L42.1637 31.5849C41.8935 29.4136 41.5289 26.4844 43.6716 26.4844H40.0116H11.2616V35.4844Z" fill="#FFCF08"/>
<path id="Vector_86" d="M42.5 11.4597C42.5 11.4597 50.17 10.9397 50.17 19.1297C50.17 19.1297 50.07 26.7897 42.51 26.7897" stroke="#FFCF08" stroke-width="0.5" stroke-miterlimit="10"/>
<path id="Vector_87" d="M8.67 11.4597C8.67 11.4597 1 10.9397 1 19.1297C1 19.1297 1.1 26.7897 8.66 26.7897" stroke="#FFCF08" stroke-width="0.5" stroke-miterlimit="10"/>
<path id="Union_5" fill-rule="evenodd" clip-rule="evenodd" d="M20.7003 0.210938C30.1085 0.210938 29.5653 4.18555 29.5603 4.2207H29.5703V66.1307H20.5703V4.22094H20.5603C20.5603 0.680938 17.5703 0.210938 17.5703 0.210938H20.7003ZM29.5804 70.1409C19.8504 70.1409 20.6004 66.1309 20.6004 66.1309H29.5804C29.5804 69.6709 32.8004 70.1409 32.8004 70.1409H29.5804Z" fill="#FFCF08"/>
<path id="Vector_88" d="M14.2289 109.817C14.2289 109.817 9.12891 109.187 9.12891 112.697C9.12891 116.207 12.4989 116.067 12.4989 116.067C12.4989 116.067 31.0889 112.847 31.0889 123.677V140.527" stroke="#FFCF08" stroke-width="0.5" stroke-miterlimit="10"/>
<path id="Union_6" fill-rule="evenodd" clip-rule="evenodd" d="M178.109 113.973C178.109 116.269 180.157 116.277 180.319 116.274V116.283H209.069V107.283H180.329V107.273H176.789C178.87 107.273 178.515 110.202 178.253 112.374C178.177 112.999 178.109 113.562 178.109 113.973ZM211.299 113.973C211.299 116.273 209.079 116.273 209.079 116.273V107.273H212.619C210.538 107.273 210.893 110.202 211.155 112.373C211.231 112.999 211.299 113.562 211.299 113.973Z" fill="#FA4013"/>
</g>
</svg>
