<?xml version="1.0" encoding="UTF-8"?>
<svg id="top01" xmlns="http://www.w3.org/2000/svg" viewBox="0 0 260 200">
  <defs>
    <style>
      <!-- .cls-1, .cls-2 {
        fill: #fa4013;
      }

      .cls-3, .cls-4 {
        fill: #ffcf08;
      }

      .cls-2, .cls-4 {
        fill-rule: evenodd;
      }

      .cls-5 {
        stroke: #fa4013;
      }

      .cls-5, .cls-6 {
        fill: none;
        stroke-miterlimit: 10;
        stroke-width: .5px;
      }

      .cls-6 {
        stroke: #ffcf08;
      } -->
    </style>
  </defs>
  <path id="topstrokchange26" class="cls-5" d="m122.46,58.49s-2.06,8.4,7.11,8.4h42.18c.9,0,1.8.14,2.64.47,1.48.58,3.25,1.88,3.25,4.74,0,0,.26,5.19-6.19,5.19h-41.76s-3.33.03-3.33,3.27c0,6.5,12.83,1.34,12.83,9.85"/>
  <path id="topstrokchange25" class="cls-6" d="m153.53,73.9s-3.31-.31-3.32,2.08c0,2.35,1.3,2.34,2.67,2.27"/>
  <path id="topstrokchange24" class="cls-6" d="m163.3,44.21h18.76"/>
  <path id="topstrokchange23" class="cls-6" d="m163.3,58.71h18.76"/>
  <path id="topstrokchange22" class="cls-6" d="m163.29,93.11h18.76"/>
  <path id="topstrokchange21" class="cls-6" d="m163.29,108.43h18.76"/>
  <path id="topstrokchange20" class="cls-6" d="m163.3,140.09h18.76"/>
  <path id="topstrokchange19" class="cls-6" d="m163.3,155.41h18.76"/>
  <path id="topstrokchange18" class="cls-6" d="m154.62,123.22h-28.77s-5-.34-5,5.76c0,0,.42,6.09-4.95,6.09s-5.11,5.88-5.11,5.88c0,0-.26,5.83,5.07,5.83h30.53s6.16-.2,6.16,7.09c0,0,.48,6.5-5.65,6.5h-5.39s-4.26.03-4.26,3.42c0,0-.4,4.34,4.19,4.34s11.16.83,11.16,4.42"/>
  <path id="topstrokchange17" class="cls-6" d="m192.11,123.14s2.62-.33,2.62,2.07-2.61,2.06-2.61,2.06"/>
  <path id="topstrokchange16" class="cls-6" d="m193.3,63.69c-2.8.03-6.08-1.27-6.08,10.61,0,0-.46,7.53,19.92,7.53h25.2s4.65-.21,4.65,4.65c0,0,.05,4.14-4.14,4.14h-1.63"/>
  <path id="topstrokchange15" class="cls-6" d="m225.71,122.62s7.68-.84,7.68-5.58-4.91-5.06-4.91-5.06"/>
  <path id="topstrokchange14" class="cls-6" d="m199.04,111.99s-4.91.32-4.91,5.06,7.57,5.58,7.57,5.58"/>
  <path id="topstrokchange13" class="cls-6" d="m229.33,134.77s7.67-1.31,7.67,7.57c0,0-.1,7.66-7.66,7.66"/>
  <path id="topstrokchange12" class="cls-6" d="m197.01,134.8s-7.67-.52-7.67,7.67c0,0,.1,7.66,7.66,7.66"/>
  <path id="topstrokchange11" class="cls-6" d="m33.23,137.06s-5.1-.63-5.1,2.88,3.37,3.37,3.37,3.37c0,0,18.59-3.22,18.59,7.61v16.85"/>
  <path id="topstrokchange10" class="cls-6" d="m79.59,155.41h18.75"/>
  <path id="topstrokchange09" class="cls-6" d="m79.59,140.09h18.75"/>
  <path id="topstrokchange08" class="cls-6" d="m108.66,123.14s2.62-.33,2.62,2.07-2.61,2.06-2.61,2.06"/>
  <path id="topstrokchange07" class="cls-6" d="m79.59,108.15h18.76"/>
  <path id="topstrokchange06" class="cls-6" d="m79.59,92.82h18.76"/>
  <path id="topstrokchange05" class="cls-6" d="m69.5,73.9s-2.62-.33-2.62,2.07,2.61,2.06,2.61,2.06"/>
  <path id="topstrokchange04" class="cls-6" d="m79.59,56.93h18.75"/>
  <path id="topstrokchange03" class="cls-6" d="m79.59,41.61h18.75"/>
  <path id="topstrokchange02" class="cls-6" d="m61.49,38.63s7.68-.45,7.68,7.74c0,0-.1,7.66-7.66,7.66"/>
  <path id="topstrokchange01" class="cls-6" d="m27.91,38.59s-7.91-.41-7.91,7.78c0,0,.87,7.66,8.43,7.66"/>
  <path id="toppath14" class="cls-1" d="m130.82,108.96c4.73,0,8.56-3.83,8.56-8.56v-10.89c-.09.62-1.03,2.33-8.56,2.33-4.73,0-8.56,3.83-8.56,8.56s3.83,8.56,8.56,8.56Z"/>
  <path id="toppath15" class="cls-3" d="m130.83,40.15c-4.73,0-8.56,3.83-8.56,8.56v10.89c.09-.62,1.03-2.33,8.56-2.33,4.73,0,8.56-3.83,8.56-8.56s-3.83-8.56-8.56-8.56Z"/>
  <path id="toppath13" class="cls-3" d="m130.81,138.44c4.73,0,8.56,3.83,8.56,8.56v10.89c-.09-.62-1.03-2.33-8.56-2.33-4.73,0-8.56-3.83-8.56-8.56s3.83-8.56,8.56-8.56Z"/>
  <path id="toppath12" class="cls-3" d="m191.14,167.86h-.02v-36.05h0c0-4.27,2.99-4.84,2.99-4.84h-3.13c-8.95,0-8.87,4.84-8.87,4.84v36.05h.01s.13,4.55,8.99,4.55h1.98s-1.96-.54-1.96-4.55Z"/>
  <path id="toppath11" class="cls-3" d="m163.3,131.95h0s.59-4.84-8.86-4.84h-3.13s2.99.57,2.99,4.84h0v36.04h0c0,4.01-1.96,4.55-1.96,4.55h1.98c8.89,0,8.99-4.55,8.99-4.55h0v-36.04Z"/>
  <path id="toppath10" class="cls-3" d="m107.35,167.86h-.01v-36.05h0c0-4.27,2.99-4.84,2.99-4.84h-3.13c-9.45,0-8.86,4.84-8.86,4.84h0v36.05h0s.13,4.55,8.99,4.55h1.98s-1.96-.54-1.96-4.55Z"/>
  <path id="toppath09" class="cls-3" d="m79.58,131.81s.59-4.84-8.86-4.84h-3.13s2.99.57,2.99,4.84h0v36.05h0c0,4.01-1.96,4.55-1.96,4.55h1.98c8.89,0,8.99-4.55,8.99-4.55h-.01v-36.05Z"/>
  <path id="toppath08" class="cls-3" d="m191.06,118.94h-.02v-36.05h0c0-4.27,2.99-4.84,2.99-4.84h-3.13c-8.95,0-8.87,4.84-8.87,4.84v36.05h.01s.13,4.55,8.99,4.55h1.98s-1.96-.54-1.96-4.55Z"/>
  <path id="toppath07" class="cls-3" d="m163.29,82.9h0s.59-4.84-8.86-4.84h-3.13s2.99.57,2.99,4.84v36.03h0c0,4.01-1.96,4.55-1.96,4.55h1.98c8.89,0,8.99-4.55,8.99-4.55h0v-36.03Z"/>
  <path id="toppath06" class="cls-3" d="m107.36,118.65h-.02v-36.05h0c0-4.27,2.99-4.84,2.99-4.84h-3.13c-8.95,0-8.87,4.84-8.87,4.84v36.05h.01s.13,4.55,8.99,4.55h1.98s-1.96-.54-1.96-4.55Z"/>
  <path id="toppath05" class="cls-3" d="m79.59,82.62h0s.59-4.84-8.86-4.84h-3.13s2.99.57,2.99,4.84v36.03h0c0,4.01-1.96,4.55-1.96,4.55h1.98c8.89,0,8.99-4.55,8.99-4.55h0v-36.03Z"/>
  <path id="toppath04" class="cls-3" d="m191.07,69.63h-.02v-36.05h0c0-4.27,2.99-4.84,2.99-4.84h-3.13c-8.95,0-8.87,4.84-8.87,4.84v36.05h.01s.13,4.55,8.99,4.55h1.98s-1.96-.54-1.96-4.55Z"/>
  <path id="toppath03" class="cls-3" d="m163.3,33.59h0s.59-4.84-8.86-4.84h-3.13s2.99.57,2.99,4.84v36.03h0c0,4.01-1.96,4.55-1.96,4.55h1.98c8.89,0,8.99-4.55,8.99-4.55h0v-36.03Z"/>
  <path id="toppath02" class="cls-3" d="m107.35,69.51h-.01v-36.05h0c0-4.27,2.99-4.84,2.99-4.84h-3.13c-9.45,0-8.86,4.84-8.86,4.84h0v36.05h0s.13,4.55,8.99,4.55h1.98s-1.96-.54-1.96-4.55Z"/>
  <path id="toppath01" class="cls-3" d="m79.58,33.47s.59-4.84-8.86-4.84h-3.13s2.99.57,2.99,4.84h0v36.05h0c0,4.01-1.96,4.55-1.96,4.55h1.98c8.89,0,8.99-4.55,8.99-4.55h-.01v-36.05Z"/>
  <path id="lighttoppath09" class="cls-3" d="m231.61,149.88h-35.82c2.68,0,1.32,4.86,1.32,6.7,0,2.39,2.22,2.3,2.22,2.3h28.74s2.22,0,2.22-2.3c0-1.84-1.36-6.7,1.32-6.7Z"/>
  <path id="lighttoppath08" class="cls-2" d="m231.61,134.52h-3.54s-28.74,0-28.74,0h0s-3.54-.01-3.54-.01c2.08,0,1.73,2.93,1.46,5.1-.08.62-.14,1.19-.14,1.6,0,2.3,2.05,2.3,2.21,2.3h0s28.75,0,28.75,0h0s2.22,0,2.22-2.3c0-.41-.07-.97-.14-1.6-.26-2.17-.62-5.1,1.46-5.1Z"/>
  <path id="lighttoppath07" class="cls-3" d="m227,122.24h-3.54s-19.52,0-19.52,0h-3.54c2.68,0,1.32,4.87,1.32,6.71,0,2.39,2.22,2.29,2.22,2.29h19.52s2.22,0,2.22-2.29c0-1.84-1.36-6.7,1.32-6.7Z"/>
  <path id="lighttoppath06" class="cls-3" d="m228.47,103.44h-29.87s-4.47.37-4.47,5.05v7.4s.58-3.45,5.23-3.45h28.46c4.65,0,5.57,3.45,5.57,3.45v-7.4c0-4.68-4.92-5.05-4.92-5.05Z"/>
  <path id="lighttoppath04" class="cls-3" d="m234.17,90.31h-5.78s-24.94,0-24.94,0c-.03,0-.05,0-.08,0h-4.7c-2.48,0-4.5,2.01-4.5,4.5s1.98,4.45,4.43,4.49v.02h29.87c.44-.03,2.75-.24,3.36-2.42.16-.55.15-1.14.05-1.71-.24-1.35-.6-4.88,2.29-4.88Z"/>
  <path id="lighttoppath03" class="cls-2" d="m220.4,39.62v-4.36h0l-.07-3.04c.15,2.89,3.24,3.04,3.24,3.04h6.22c10.41,0,10.22,11.29,10.22,11.34h0c0,.05,0,14-12.95,21.54,0,0-3.42,2.01-7.25,2.6-1.91.3-3.11-.78-3.82-1.93-.56-.9-.86-1.96-.99-3.04-.12-.98-.58-2.68-2.4-2.68h4.05c.68,0,1.36-.12,2.01-.36,3.21-1.21,12.59-5.63,12.59-16.13h-.03c0-3.84-3.64-3.64-3.64-3.64h-3.83c-3.34,0-3.34-3.34-3.34-3.34Zm-.09-7.61v.21c0-.07,0-.14,0-.21Z"/>
  <path id="lighttoppath02" class="cls-3" d="m216.33,28.6c-5.97,0-5.98,5.71-5.98,5.72v12.63h0c0,10.5-9.38,14.92-12.59,16.13-.65.24-1.33.36-2.01.36h-4.05c1.82,0,2.28,1.7,2.4,2.68.13,1.08.43,2.14.99,3.04.71,1.15,1.91,2.23,3.82,1.93,3.83-.59,7.25-2.6,7.25-2.6,14.13-7.2,13.19-21.48,13.19-21.54h0v-12.63h0v-3.38c0-1.75,3.38-2.34,3.38-2.34h-6.4Z"/>
  <path id="lighttoppath02-2" data-name="lighttoppath02" class="cls-3" d="m204.84,34.8h-4.27c-2.49,0-4.5,2.01-4.5,4.5s2.01,4.5,4.5,4.5h4.27c2.49,0,4.5-2.01,4.5-4.5s-2.01-4.5-4.5-4.5Z"/>
  <path id="lefttoppath03" class="cls-4" d="m66.35,134.16c0-2.36-1.92-4.28-4.28-4.28h-5.03c2.23-5.15,2.23-9.48,2.23-9.48h0s.19-11.34-10.22-11.34h-6.22s-3.1-.14-3.24-3.04l.07,3.04h.02v4.36s0,3.34,3.34,3.34h3.83s3.42-.2,3.42,3.64h.03c0,10.5-9.16,14.92-12.37,16.13-.65.24-1.33.36-2.01.36h-4.05c1.82,0,2.28,1.7,2.4,2.68.13,1.08.43,2.14.99,3.04.71,1.15,1.91,2.23,3.82,1.93,3.83-.59,7.25-2.6,7.25-2.6,5.67-3.3,8.85-7.82,10.64-11.88.37.35.83,1.32.83,4.1,0,2.36,1.92,4.28,4.28,4.28s4.28-1.92,4.28-4.28h-.01Z"/>
  <path id="lefttoppath02" class="cls-1" d="m60.8,100.53c2.36,0,4.28,1.92,4.28,4.28v5.45c-.05-.31-.51-1.17-4.28-1.17-2.36,0-4.28-1.92-4.28-4.28s1.92-4.28,4.28-4.28Z"/>
  <path id="lefttoppath01" class="cls-3" d="m62.67,53.72h-14.1v-6.32h10.44s2.3-.14,2.3-2.31c0-.41-.07-.97-.15-1.6-.24-1.92-.55-4.44.87-4.99.06-.02.04-.11-.02-.11h-2.99s-10.44.01-10.44.01v-6.95h-.01s.55-4.01-8.86-4.01h-3.13s2.99.47,2.99,4.01h.01v6.95h-9.31s-3.66-.01-3.66-.01c2.14,0,1.78,2.93,1.51,5.1-.08.63-.16,1.19-.15,1.6.05,2.31,2.3,2.31,2.3,2.31h9.31v6.32h-12.97c2.14,0,1.78,2.93,1.51,5.1-.08.63-.15,1.19-.15,1.6,0,2.3,2.3,2.3,2.3,2.3h9.31v30.65h.02c-.03.18-.52,4,8.98,4h3.22s-3.22-.47-3.22-4.01h0v-30.64h10.44s2.3-.1,2.3-2.3c0-.41-.07-.97-.15-1.6-.27-2.17-.63-5.1,1.51-5.1Z"/>
</svg>