<?xml version="1.0" encoding="UTF-8"?>
<svg id="top02" xmlns="http://www.w3.org/2000/svg" viewBox="0 0 260 200">
  <defs>
    <style>
      <!-- .cls-1 {
        fill: #ffcf08;
      }

      .cls-2 {
        fill: #fa4013;
        fill-rule: evenodd;
      }

      .cls-3 {
        fill: none;
        stroke: #ffcf08;
        stroke-miterlimit: 10;
        stroke-width: .5px;
      } -->
    </style>
  </defs>
  <path id="topstork04" class="cls-3" d="m38.02,70.28l.16,13.22s.45,11.5,6.88,10.39"/>
  <path id="topstork03" class="cls-3" d="m132.24,78.03l-.16-13.1s.52-11.32-6.91-10.13"/>
  <path id="topstork02" class="cls-3" d="m192.03,49.95h28.67s9.05.25,8.8-8.03c0,0,.76-7.99-9.83-7.99h-36.21s-15.65-.04-15.65-7.77c0-4.13-4.15-6.19-7.84-5.46-4.06.81-4.85,4.42-4.85,7.99v25.82s.69,10.34-8.77,10.34c0,0-8.82,0-8.82-10.37l-.36-8.69"/>
  <path id="topstork01" class="cls-3" d="m187.31,136.65s-10.31-1.74-10.16,11.6c0,0-.02,10.15,13.31,10.15,0,0,8.43-.67,8.43,7.21,0,0-.31,7.13-9.06,7.13h-37.9s-9.3.95-9.3-7.13c0-6.8-8.73-6.24-8.73-6.24h-20.7s-6.19-.37-6.19-7.93c0,0-1.03-9.68,7.85-9.68s26.63-.59,26.63-.59l14.56-.29s11.87.24,11.87-8.67c0,0,1.84-8.89-12.43-8.89h-41.75s-17.77,0-17.77,16.29v36.69s.13,3.59-5.9,3.09c0,0-4.19-.37-4.19-3.47s3.67-3.44,3.67-3.44"/>
  <path id="toppath09" class="cls-2" d="m195.51,67.1v4.83s.07,4.18,7.04,4.18h7.99s14.09-1.08,13.53,11.76h0c-.03.43-.06.85-.09,1.27-.06.51-.14,1.05-.24,1.6h.09c-3.7,35.27-32.39,45.58-32.39,45.58v.04h-5.55s2.77,1.47,2.03,4.82c-1.6,7.28,3.52,4.82,3.52,4.82h0c35.08-13.33,40.6-45.48,41.47-55.26h.06s.09-.9.09-2.36c.01-.34.01-.52.01-.52h-.02c-.1-6.35-2.06-21.01-17.98-20.77h-12.96s-6.43-.3-6.76-6.29v-.48c-.01.16,0,.32,0,.48l.17,6.29Z"/>
  <path id="toppath08" class="cls-1" d="m192.15,61.55v-7.31c0-3.62,3.6-4.53,3.6-4.53h-5.51c-7.24,0-7.09,11.75-7.09,11.84h0v26.33h0c-4.22,39.86-32.63,45.79-32.63,45.79h0s-5.4.01-5.4.01c0,0,2.26,1.41,1.89,4.82-.79,7.31,3.28,5.17,3.51,5.05h0c42.64-15.46,41.63-55.67,41.63-55.67h0v-26.32h0Z"/>
  <path id="toppath07" class="cls-1" d="m176.54,67.11h-7.96s-11.42,0-11.42,0c-2.49,0-4.5,2.01-4.5,4.5s2.01,4.5,4.5,4.5h16.19s.01,0,.02,0h4.11c2.03,0,2.08,2.26,2.08,2.26v-7.29c0-4.43-3.02-3.97-3.02-3.97Z"/>
  <path id="toppath06" class="cls-1" d="m80.59,94.11s-10.29,40.36-46.53,40.36h0s-3.52,0-3.52,4.82c0,3.43-3.61,4.82-3.61,4.82h7.13s49.66-2.33,55.53-49.99h0s-9-.01-9-.01Z"/>
  <path id="toppath05" class="cls-1" d="m143.24,144.53s-3.82-1.39-3.61-4.8c.3-4.91-3.52-4.82-3.52-4.82h0c-36.22,0-46.52-33.9-46.52-33.9h-9c7.84,45.92,55.53,43.52,55.53,43.52h0s7.12,0,7.12,0Z"/>
  <path id="toppath04" class="cls-1" d="m119.67,85.11h0s-69.17,0-69.17,0h0s-3.52.02-3.52,4.5c0,3.2-3.61,4.5-3.61,4.5h76.3s12.76.32,12.76-9.33v-8.89s-5.11,9.21-12.76,9.21Z"/>
  <path id="toppath03" class="cls-1" d="m119.67,54.5H50.5s-12.76-.81-12.76,9.32v8.89s5.11-9.21,12.76-9.21h0s69.17,0,69.17,0c0,0,3.52.3,3.52-4.85,0-3.43,3.61-4.15,3.61-4.15h-7.13Z"/>
  <path id="toppath02" class="cls-1" d="m133.73,38.87h0s-97.26-.01-97.26-.01c-3.89,0-3.82-4.3-3.82-4.3v18.26h0c0-5.72,3.77-4.97,3.82-4.96h0s97.25,0,97.25,0h0s3.82-.78,3.82,4.98h0v-18.27s.07,4.29-3.81,4.3Z"/>
  <path id="toppath01" class="cls-2" d="m89.59,27.22s0-2.64-4.5-2.64c-3.2,0-4.5-2.71-4.5-2.71v5.35h0v138.39h9V27.23h.01Zm-4.5,141.91c-4.5,0-4.5-3.52-4.5-3.52h9v7.13s-1.3-3.61-4.5-3.61Z"/>
</svg>